<?xml version="1.0" encoding="utf-8" standalone="no"?>
<!DOCTYPE svg PUBLIC "-//W3C//DTD SVG 1.1//EN"
  "http://www.w3.org/Graphics/SVG/1.1/DTD/svg11.dtd">
<!-- Created with matplotlib (https://matplotlib.org/) -->
<svg height="426.71625pt" version="1.1" viewBox="0 0 1448.2125 426.71625" width="1448.2125pt" xmlns="http://www.w3.org/2000/svg" xmlns:xlink="http://www.w3.org/1999/xlink">
 <defs>
  <style type="text/css">
*{stroke-linecap:butt;stroke-linejoin:round;}
  </style>
 </defs>
 <g id="figure_1">
  <g id="patch_1">
   <path d="M 0 426.71625 
L 1448.2125 426.71625 
L 1448.2125 0 
L 0 0 
z
" style="fill:none;"/>
  </g>
  <g id="axes_1">
   <g id="patch_2">
    <path d="M 46.0125 402.838125 
L 456.306618 402.838125 
L 456.306618 22.318125 
L 46.0125 22.318125 
z
" style="fill:#ffffff;"/>
   </g>
   <g id="patch_3">
    <path clip-path="url(#pd17281e735)" d="M 64.662233 402.838125 
L 81.426037 402.838125 
L 81.426037 375.89098 
L 64.662233 375.89098 
z
" style="fill:#1f77b4;"/>
   </g>
   <g id="patch_4">
    <path clip-path="url(#pd17281e735)" d="M 85.616988 402.838125 
L 102.380793 402.838125 
L 102.380793 260.885682 
L 85.616988 260.885682 
z
" style="fill:#1f77b4;"/>
   </g>
   <g id="patch_5">
    <path clip-path="url(#pd17281e735)" d="M 106.571744 402.838125 
L 123.335549 402.838125 
L 123.335549 355.876147 
L 106.571744 355.876147 
z
" style="fill:#1f77b4;"/>
   </g>
   <g id="patch_6">
    <path clip-path="url(#pd17281e735)" d="M 127.5265 402.838125 
L 144.290304 402.838125 
L 144.290304 352.143363 
L 127.5265 352.143363 
z
" style="fill:#1f77b4;"/>
   </g>
   <g id="patch_7">
    <path clip-path="url(#pd17281e735)" d="M 148.481256 402.838125 
L 165.24506 402.838125 
L 165.24506 321.179031 
L 148.481256 321.179031 
z
" style="fill:#1f77b4;"/>
   </g>
   <g id="patch_8">
    <path clip-path="url(#pd17281e735)" d="M 169.436011 402.838125 
L 186.199816 402.838125 
L 186.199816 121.670615 
L 169.436011 121.670615 
z
" style="fill:#1f77b4;"/>
   </g>
   <g id="patch_9">
    <path clip-path="url(#pd17281e735)" d="M 190.390767 402.838125 
L 207.154572 402.838125 
L 207.154572 188.825176 
L 190.390767 188.825176 
z
" style="fill:#1f77b4;"/>
   </g>
   <g id="patch_10">
    <path clip-path="url(#pd17281e735)" d="M 211.345523 402.838125 
L 228.109327 402.838125 
L 228.109327 204.467319 
L 211.345523 204.467319 
z
" style="fill:#1f77b4;"/>
   </g>
   <g id="patch_11">
    <path clip-path="url(#pd17281e735)" d="M 232.300279 402.838125 
L 249.064083 402.838125 
L 249.064083 326.618231 
L 232.300279 326.618231 
z
" style="fill:#1f77b4;"/>
   </g>
   <g id="patch_12">
    <path clip-path="url(#pd17281e735)" d="M 253.255034 402.838125 
L 270.018839 402.838125 
L 270.018839 40.438125 
L 253.255034 40.438125 
z
" style="fill:#1f77b4;"/>
   </g>
   <g id="patch_13">
    <path clip-path="url(#pd17281e735)" d="M 274.20979 402.838125 
L 290.973595 402.838125 
L 290.973595 339.7363 
L 274.20979 339.7363 
z
" style="fill:#1f77b4;"/>
   </g>
   <g id="patch_14">
    <path clip-path="url(#pd17281e735)" d="M 295.164546 402.838125 
L 311.928351 402.838125 
L 311.928351 288.08168 
L 295.164546 288.08168 
z
" style="fill:#1f77b4;"/>
   </g>
   <g id="patch_15">
    <path clip-path="url(#pd17281e735)" d="M 316.119302 402.838125 
L 332.883106 402.838125 
L 332.883106 189.891686 
L 316.119302 189.891686 
z
" style="fill:#1f77b4;"/>
   </g>
   <g id="patch_16">
    <path clip-path="url(#pd17281e735)" d="M 337.074057 402.838125 
L 353.837862 402.838125 
L 353.837862 212.146189 
L 337.074057 212.146189 
z
" style="fill:#1f77b4;"/>
   </g>
   <g id="patch_17">
    <path clip-path="url(#pd17281e735)" d="M 358.028813 402.838125 
L 374.792618 402.838125 
L 374.792618 396.439067 
L 358.028813 396.439067 
z
" style="fill:#1f77b4;"/>
   </g>
   <g id="patch_18">
    <path clip-path="url(#pd17281e735)" d="M 378.983569 402.838125 
L 395.747374 402.838125 
L 395.747374 397.398925 
L 378.983569 397.398925 
z
" style="fill:#1f77b4;"/>
   </g>
   <g id="patch_19">
    <path clip-path="url(#pd17281e735)" d="M 399.938325 402.838125 
L 416.702129 402.838125 
L 416.702129 303.048366 
L 399.938325 303.048366 
z
" style="fill:#1f77b4;"/>
   </g>
   <g id="patch_20">
    <path clip-path="url(#pd17281e735)" d="M 420.89308 402.838125 
L 437.656885 402.838125 
L 437.656885 281.362669 
L 420.89308 281.362669 
z
" style="fill:#1f77b4;"/>
   </g>
   <g id="matplotlib.axis_1">
    <g id="xtick_1">
     <g id="line2d_1">
      <defs>
       <path d="M 0 0 
L 0 3.5 
" id="m3b3f9e482b" style="stroke:#000000;stroke-width:0.8;"/>
      </defs>
      <g>
       <use style="stroke:#000000;stroke-width:0.8;" x="73.044135" xlink:href="#m3b3f9e482b" y="402.838125"/>
      </g>
     </g>
     <g id="text_1">
      <!-- 0 -->
      <defs>
       <path d="M 31.78125 66.40625 
Q 24.171875 66.40625 20.328125 58.90625 
Q 16.5 51.421875 16.5 36.375 
Q 16.5 21.390625 20.328125 13.890625 
Q 24.171875 6.390625 31.78125 6.390625 
Q 39.453125 6.390625 43.28125 13.890625 
Q 47.125 21.390625 47.125 36.375 
Q 47.125 51.421875 43.28125 58.90625 
Q 39.453125 66.40625 31.78125 66.40625 
z
M 31.78125 74.21875 
Q 44.046875 74.21875 50.515625 64.515625 
Q 56.984375 54.828125 56.984375 36.375 
Q 56.984375 17.96875 50.515625 8.265625 
Q 44.046875 -1.421875 31.78125 -1.421875 
Q 19.53125 -1.421875 13.0625 8.265625 
Q 6.59375 17.96875 6.59375 36.375 
Q 6.59375 54.828125 13.0625 64.515625 
Q 19.53125 74.21875 31.78125 74.21875 
z
" id="DejaVuSans-48"/>
      </defs>
      <g transform="translate(69.862885 417.436562)scale(0.1 -0.1)">
       <use xlink:href="#DejaVuSans-48"/>
      </g>
     </g>
    </g>
    <g id="xtick_2">
     <g id="line2d_2">
      <g>
       <use style="stroke:#000000;stroke-width:0.8;" x="93.998891" xlink:href="#m3b3f9e482b" y="402.838125"/>
      </g>
     </g>
     <g id="text_2">
      <!-- 1 -->
      <defs>
       <path d="M 12.40625 8.296875 
L 28.515625 8.296875 
L 28.515625 63.921875 
L 10.984375 60.40625 
L 10.984375 69.390625 
L 28.421875 72.90625 
L 38.28125 72.90625 
L 38.28125 8.296875 
L 54.390625 8.296875 
L 54.390625 0 
L 12.40625 0 
z
" id="DejaVuSans-49"/>
      </defs>
      <g transform="translate(90.817641 417.436562)scale(0.1 -0.1)">
       <use xlink:href="#DejaVuSans-49"/>
      </g>
     </g>
    </g>
    <g id="xtick_3">
     <g id="line2d_3">
      <g>
       <use style="stroke:#000000;stroke-width:0.8;" x="114.953646" xlink:href="#m3b3f9e482b" y="402.838125"/>
      </g>
     </g>
     <g id="text_3">
      <!-- 2 -->
      <defs>
       <path d="M 19.1875 8.296875 
L 53.609375 8.296875 
L 53.609375 0 
L 7.328125 0 
L 7.328125 8.296875 
Q 12.9375 14.109375 22.625 23.890625 
Q 32.328125 33.6875 34.8125 36.53125 
Q 39.546875 41.84375 41.421875 45.53125 
Q 43.3125 49.21875 43.3125 52.78125 
Q 43.3125 58.59375 39.234375 62.25 
Q 35.15625 65.921875 28.609375 65.921875 
Q 23.96875 65.921875 18.8125 64.3125 
Q 13.671875 62.703125 7.8125 59.421875 
L 7.8125 69.390625 
Q 13.765625 71.78125 18.9375 73 
Q 24.125 74.21875 28.421875 74.21875 
Q 39.75 74.21875 46.484375 68.546875 
Q 53.21875 62.890625 53.21875 53.421875 
Q 53.21875 48.921875 51.53125 44.890625 
Q 49.859375 40.875 45.40625 35.40625 
Q 44.1875 33.984375 37.640625 27.21875 
Q 31.109375 20.453125 19.1875 8.296875 
z
" id="DejaVuSans-50"/>
      </defs>
      <g transform="translate(111.772396 417.436562)scale(0.1 -0.1)">
       <use xlink:href="#DejaVuSans-50"/>
      </g>
     </g>
    </g>
    <g id="xtick_4">
     <g id="line2d_4">
      <g>
       <use style="stroke:#000000;stroke-width:0.8;" x="135.908402" xlink:href="#m3b3f9e482b" y="402.838125"/>
      </g>
     </g>
     <g id="text_4">
      <!-- 3 -->
      <defs>
       <path d="M 40.578125 39.3125 
Q 47.65625 37.796875 51.625 33 
Q 55.609375 28.21875 55.609375 21.1875 
Q 55.609375 10.40625 48.1875 4.484375 
Q 40.765625 -1.421875 27.09375 -1.421875 
Q 22.515625 -1.421875 17.65625 -0.515625 
Q 12.796875 0.390625 7.625 2.203125 
L 7.625 11.71875 
Q 11.71875 9.328125 16.59375 8.109375 
Q 21.484375 6.890625 26.8125 6.890625 
Q 36.078125 6.890625 40.9375 10.546875 
Q 45.796875 14.203125 45.796875 21.1875 
Q 45.796875 27.640625 41.28125 31.265625 
Q 36.765625 34.90625 28.71875 34.90625 
L 20.21875 34.90625 
L 20.21875 43.015625 
L 29.109375 43.015625 
Q 36.375 43.015625 40.234375 45.921875 
Q 44.09375 48.828125 44.09375 54.296875 
Q 44.09375 59.90625 40.109375 62.90625 
Q 36.140625 65.921875 28.71875 65.921875 
Q 24.65625 65.921875 20.015625 65.03125 
Q 15.375 64.15625 9.8125 62.3125 
L 9.8125 71.09375 
Q 15.4375 72.65625 20.34375 73.4375 
Q 25.25 74.21875 29.59375 74.21875 
Q 40.828125 74.21875 47.359375 69.109375 
Q 53.90625 64.015625 53.90625 55.328125 
Q 53.90625 49.265625 50.4375 45.09375 
Q 46.96875 40.921875 40.578125 39.3125 
z
" id="DejaVuSans-51"/>
      </defs>
      <g transform="translate(132.727152 417.436562)scale(0.1 -0.1)">
       <use xlink:href="#DejaVuSans-51"/>
      </g>
     </g>
    </g>
    <g id="xtick_5">
     <g id="line2d_5">
      <g>
       <use style="stroke:#000000;stroke-width:0.8;" x="156.863158" xlink:href="#m3b3f9e482b" y="402.838125"/>
      </g>
     </g>
     <g id="text_5">
      <!-- 4 -->
      <defs>
       <path d="M 37.796875 64.3125 
L 12.890625 25.390625 
L 37.796875 25.390625 
z
M 35.203125 72.90625 
L 47.609375 72.90625 
L 47.609375 25.390625 
L 58.015625 25.390625 
L 58.015625 17.1875 
L 47.609375 17.1875 
L 47.609375 0 
L 37.796875 0 
L 37.796875 17.1875 
L 4.890625 17.1875 
L 4.890625 26.703125 
z
" id="DejaVuSans-52"/>
      </defs>
      <g transform="translate(153.681908 417.436562)scale(0.1 -0.1)">
       <use xlink:href="#DejaVuSans-52"/>
      </g>
     </g>
    </g>
    <g id="xtick_6">
     <g id="line2d_6">
      <g>
       <use style="stroke:#000000;stroke-width:0.8;" x="177.817914" xlink:href="#m3b3f9e482b" y="402.838125"/>
      </g>
     </g>
     <g id="text_6">
      <!-- 5 -->
      <defs>
       <path d="M 10.796875 72.90625 
L 49.515625 72.90625 
L 49.515625 64.59375 
L 19.828125 64.59375 
L 19.828125 46.734375 
Q 21.96875 47.46875 24.109375 47.828125 
Q 26.265625 48.1875 28.421875 48.1875 
Q 40.625 48.1875 47.75 41.5 
Q 54.890625 34.8125 54.890625 23.390625 
Q 54.890625 11.625 47.5625 5.09375 
Q 40.234375 -1.421875 26.90625 -1.421875 
Q 22.3125 -1.421875 17.546875 -0.640625 
Q 12.796875 0.140625 7.71875 1.703125 
L 7.71875 11.625 
Q 12.109375 9.234375 16.796875 8.0625 
Q 21.484375 6.890625 26.703125 6.890625 
Q 35.15625 6.890625 40.078125 11.328125 
Q 45.015625 15.765625 45.015625 23.390625 
Q 45.015625 31 40.078125 35.4375 
Q 35.15625 39.890625 26.703125 39.890625 
Q 22.75 39.890625 18.8125 39.015625 
Q 14.890625 38.140625 10.796875 36.28125 
z
" id="DejaVuSans-53"/>
      </defs>
      <g transform="translate(174.636664 417.436562)scale(0.1 -0.1)">
       <use xlink:href="#DejaVuSans-53"/>
      </g>
     </g>
    </g>
    <g id="xtick_7">
     <g id="line2d_7">
      <g>
       <use style="stroke:#000000;stroke-width:0.8;" x="198.772669" xlink:href="#m3b3f9e482b" y="402.838125"/>
      </g>
     </g>
     <g id="text_7">
      <!-- 6 -->
      <defs>
       <path d="M 33.015625 40.375 
Q 26.375 40.375 22.484375 35.828125 
Q 18.609375 31.296875 18.609375 23.390625 
Q 18.609375 15.53125 22.484375 10.953125 
Q 26.375 6.390625 33.015625 6.390625 
Q 39.65625 6.390625 43.53125 10.953125 
Q 47.40625 15.53125 47.40625 23.390625 
Q 47.40625 31.296875 43.53125 35.828125 
Q 39.65625 40.375 33.015625 40.375 
z
M 52.59375 71.296875 
L 52.59375 62.3125 
Q 48.875 64.0625 45.09375 64.984375 
Q 41.3125 65.921875 37.59375 65.921875 
Q 27.828125 65.921875 22.671875 59.328125 
Q 17.53125 52.734375 16.796875 39.40625 
Q 19.671875 43.65625 24.015625 45.921875 
Q 28.375 48.1875 33.59375 48.1875 
Q 44.578125 48.1875 50.953125 41.515625 
Q 57.328125 34.859375 57.328125 23.390625 
Q 57.328125 12.15625 50.6875 5.359375 
Q 44.046875 -1.421875 33.015625 -1.421875 
Q 20.359375 -1.421875 13.671875 8.265625 
Q 6.984375 17.96875 6.984375 36.375 
Q 6.984375 53.65625 15.1875 63.9375 
Q 23.390625 74.21875 37.203125 74.21875 
Q 40.921875 74.21875 44.703125 73.484375 
Q 48.484375 72.75 52.59375 71.296875 
z
" id="DejaVuSans-54"/>
      </defs>
      <g transform="translate(195.591419 417.436562)scale(0.1 -0.1)">
       <use xlink:href="#DejaVuSans-54"/>
      </g>
     </g>
    </g>
    <g id="xtick_8">
     <g id="line2d_8">
      <g>
       <use style="stroke:#000000;stroke-width:0.8;" x="219.727425" xlink:href="#m3b3f9e482b" y="402.838125"/>
      </g>
     </g>
     <g id="text_8">
      <!-- 7 -->
      <defs>
       <path d="M 8.203125 72.90625 
L 55.078125 72.90625 
L 55.078125 68.703125 
L 28.609375 0 
L 18.3125 0 
L 43.21875 64.59375 
L 8.203125 64.59375 
z
" id="DejaVuSans-55"/>
      </defs>
      <g transform="translate(216.546175 417.436562)scale(0.1 -0.1)">
       <use xlink:href="#DejaVuSans-55"/>
      </g>
     </g>
    </g>
    <g id="xtick_9">
     <g id="line2d_9">
      <g>
       <use style="stroke:#000000;stroke-width:0.8;" x="240.682181" xlink:href="#m3b3f9e482b" y="402.838125"/>
      </g>
     </g>
     <g id="text_9">
      <!-- 8 -->
      <defs>
       <path d="M 31.78125 34.625 
Q 24.75 34.625 20.71875 30.859375 
Q 16.703125 27.09375 16.703125 20.515625 
Q 16.703125 13.921875 20.71875 10.15625 
Q 24.75 6.390625 31.78125 6.390625 
Q 38.8125 6.390625 42.859375 10.171875 
Q 46.921875 13.96875 46.921875 20.515625 
Q 46.921875 27.09375 42.890625 30.859375 
Q 38.875 34.625 31.78125 34.625 
z
M 21.921875 38.8125 
Q 15.578125 40.375 12.03125 44.71875 
Q 8.5 49.078125 8.5 55.328125 
Q 8.5 64.0625 14.71875 69.140625 
Q 20.953125 74.21875 31.78125 74.21875 
Q 42.671875 74.21875 48.875 69.140625 
Q 55.078125 64.0625 55.078125 55.328125 
Q 55.078125 49.078125 51.53125 44.71875 
Q 48 40.375 41.703125 38.8125 
Q 48.828125 37.15625 52.796875 32.3125 
Q 56.78125 27.484375 56.78125 20.515625 
Q 56.78125 9.90625 50.3125 4.234375 
Q 43.84375 -1.421875 31.78125 -1.421875 
Q 19.734375 -1.421875 13.25 4.234375 
Q 6.78125 9.90625 6.78125 20.515625 
Q 6.78125 27.484375 10.78125 32.3125 
Q 14.796875 37.15625 21.921875 38.8125 
z
M 18.3125 54.390625 
Q 18.3125 48.734375 21.84375 45.5625 
Q 25.390625 42.390625 31.78125 42.390625 
Q 38.140625 42.390625 41.71875 45.5625 
Q 45.3125 48.734375 45.3125 54.390625 
Q 45.3125 60.0625 41.71875 63.234375 
Q 38.140625 66.40625 31.78125 66.40625 
Q 25.390625 66.40625 21.84375 63.234375 
Q 18.3125 60.0625 18.3125 54.390625 
z
" id="DejaVuSans-56"/>
      </defs>
      <g transform="translate(237.500931 417.436562)scale(0.1 -0.1)">
       <use xlink:href="#DejaVuSans-56"/>
      </g>
     </g>
    </g>
    <g id="xtick_10">
     <g id="line2d_10">
      <g>
       <use style="stroke:#000000;stroke-width:0.8;" x="261.636937" xlink:href="#m3b3f9e482b" y="402.838125"/>
      </g>
     </g>
     <g id="text_10">
      <!-- 9 -->
      <defs>
       <path d="M 10.984375 1.515625 
L 10.984375 10.5 
Q 14.703125 8.734375 18.5 7.8125 
Q 22.3125 6.890625 25.984375 6.890625 
Q 35.75 6.890625 40.890625 13.453125 
Q 46.046875 20.015625 46.78125 33.40625 
Q 43.953125 29.203125 39.59375 26.953125 
Q 35.25 24.703125 29.984375 24.703125 
Q 19.046875 24.703125 12.671875 31.3125 
Q 6.296875 37.9375 6.296875 49.421875 
Q 6.296875 60.640625 12.9375 67.421875 
Q 19.578125 74.21875 30.609375 74.21875 
Q 43.265625 74.21875 49.921875 64.515625 
Q 56.59375 54.828125 56.59375 36.375 
Q 56.59375 19.140625 48.40625 8.859375 
Q 40.234375 -1.421875 26.421875 -1.421875 
Q 22.703125 -1.421875 18.890625 -0.6875 
Q 15.09375 0.046875 10.984375 1.515625 
z
M 30.609375 32.421875 
Q 37.25 32.421875 41.125 36.953125 
Q 45.015625 41.5 45.015625 49.421875 
Q 45.015625 57.28125 41.125 61.84375 
Q 37.25 66.40625 30.609375 66.40625 
Q 23.96875 66.40625 20.09375 61.84375 
Q 16.21875 57.28125 16.21875 49.421875 
Q 16.21875 41.5 20.09375 36.953125 
Q 23.96875 32.421875 30.609375 32.421875 
z
" id="DejaVuSans-57"/>
      </defs>
      <g transform="translate(258.455687 417.436562)scale(0.1 -0.1)">
       <use xlink:href="#DejaVuSans-57"/>
      </g>
     </g>
    </g>
    <g id="xtick_11">
     <g id="line2d_11">
      <g>
       <use style="stroke:#000000;stroke-width:0.8;" x="282.591692" xlink:href="#m3b3f9e482b" y="402.838125"/>
      </g>
     </g>
     <g id="text_11">
      <!-- 10 -->
      <g transform="translate(276.229192 417.436562)scale(0.1 -0.1)">
       <use xlink:href="#DejaVuSans-49"/>
       <use x="63.623047" xlink:href="#DejaVuSans-48"/>
      </g>
     </g>
    </g>
    <g id="xtick_12">
     <g id="line2d_12">
      <g>
       <use style="stroke:#000000;stroke-width:0.8;" x="303.546448" xlink:href="#m3b3f9e482b" y="402.838125"/>
      </g>
     </g>
     <g id="text_12">
      <!-- 11 -->
      <g transform="translate(297.183948 417.436562)scale(0.1 -0.1)">
       <use xlink:href="#DejaVuSans-49"/>
       <use x="63.623047" xlink:href="#DejaVuSans-49"/>
      </g>
     </g>
    </g>
    <g id="xtick_13">
     <g id="line2d_13">
      <g>
       <use style="stroke:#000000;stroke-width:0.8;" x="324.501204" xlink:href="#m3b3f9e482b" y="402.838125"/>
      </g>
     </g>
     <g id="text_13">
      <!-- 12 -->
      <g transform="translate(318.138704 417.436562)scale(0.1 -0.1)">
       <use xlink:href="#DejaVuSans-49"/>
       <use x="63.623047" xlink:href="#DejaVuSans-50"/>
      </g>
     </g>
    </g>
    <g id="xtick_14">
     <g id="line2d_14">
      <g>
       <use style="stroke:#000000;stroke-width:0.8;" x="345.45596" xlink:href="#m3b3f9e482b" y="402.838125"/>
      </g>
     </g>
     <g id="text_14">
      <!-- 13 -->
      <g transform="translate(339.09346 417.436562)scale(0.1 -0.1)">
       <use xlink:href="#DejaVuSans-49"/>
       <use x="63.623047" xlink:href="#DejaVuSans-51"/>
      </g>
     </g>
    </g>
    <g id="xtick_15">
     <g id="line2d_15">
      <g>
       <use style="stroke:#000000;stroke-width:0.8;" x="366.410715" xlink:href="#m3b3f9e482b" y="402.838125"/>
      </g>
     </g>
     <g id="text_15">
      <!-- 14 -->
      <g transform="translate(360.048215 417.436562)scale(0.1 -0.1)">
       <use xlink:href="#DejaVuSans-49"/>
       <use x="63.623047" xlink:href="#DejaVuSans-52"/>
      </g>
     </g>
    </g>
    <g id="xtick_16">
     <g id="line2d_16">
      <g>
       <use style="stroke:#000000;stroke-width:0.8;" x="387.365471" xlink:href="#m3b3f9e482b" y="402.838125"/>
      </g>
     </g>
     <g id="text_16">
      <!-- 15 -->
      <g transform="translate(381.002971 417.436562)scale(0.1 -0.1)">
       <use xlink:href="#DejaVuSans-49"/>
       <use x="63.623047" xlink:href="#DejaVuSans-53"/>
      </g>
     </g>
    </g>
    <g id="xtick_17">
     <g id="line2d_17">
      <g>
       <use style="stroke:#000000;stroke-width:0.8;" x="408.320227" xlink:href="#m3b3f9e482b" y="402.838125"/>
      </g>
     </g>
     <g id="text_17">
      <!-- 16 -->
      <g transform="translate(401.957727 417.436562)scale(0.1 -0.1)">
       <use xlink:href="#DejaVuSans-49"/>
       <use x="63.623047" xlink:href="#DejaVuSans-54"/>
      </g>
     </g>
    </g>
    <g id="xtick_18">
     <g id="line2d_18">
      <g>
       <use style="stroke:#000000;stroke-width:0.8;" x="429.274983" xlink:href="#m3b3f9e482b" y="402.838125"/>
      </g>
     </g>
     <g id="text_18">
      <!-- 17 -->
      <g transform="translate(422.912483 417.436562)scale(0.1 -0.1)">
       <use xlink:href="#DejaVuSans-49"/>
       <use x="63.623047" xlink:href="#DejaVuSans-55"/>
      </g>
     </g>
    </g>
   </g>
   <g id="matplotlib.axis_2">
    <g id="ytick_1">
     <g id="line2d_19">
      <defs>
       <path d="M 0 0 
L -3.5 0 
" id="m91d0c8a43e" style="stroke:#000000;stroke-width:0.8;"/>
      </defs>
      <g>
       <use style="stroke:#000000;stroke-width:0.8;" x="46.0125" xlink:href="#m91d0c8a43e" y="402.838125"/>
      </g>
     </g>
     <g id="text_19">
      <!-- 0 -->
      <g transform="translate(32.65 406.637344)scale(0.1 -0.1)">
       <use xlink:href="#DejaVuSans-48"/>
      </g>
     </g>
    </g>
    <g id="ytick_2">
     <g id="line2d_20">
      <g>
       <use style="stroke:#000000;stroke-width:0.8;" x="46.0125" xlink:href="#m91d0c8a43e" y="331.737478"/>
      </g>
     </g>
     <g id="text_20">
      <!-- 2000 -->
      <g transform="translate(13.5625 335.536696)scale(0.1 -0.1)">
       <use xlink:href="#DejaVuSans-50"/>
       <use x="63.623047" xlink:href="#DejaVuSans-48"/>
       <use x="127.246094" xlink:href="#DejaVuSans-48"/>
       <use x="190.869141" xlink:href="#DejaVuSans-48"/>
      </g>
     </g>
    </g>
    <g id="ytick_3">
     <g id="line2d_21">
      <g>
       <use style="stroke:#000000;stroke-width:0.8;" x="46.0125" xlink:href="#m91d0c8a43e" y="260.63683"/>
      </g>
     </g>
     <g id="text_21">
      <!-- 4000 -->
      <g transform="translate(13.5625 264.436049)scale(0.1 -0.1)">
       <use xlink:href="#DejaVuSans-52"/>
       <use x="63.623047" xlink:href="#DejaVuSans-48"/>
       <use x="127.246094" xlink:href="#DejaVuSans-48"/>
       <use x="190.869141" xlink:href="#DejaVuSans-48"/>
      </g>
     </g>
    </g>
    <g id="ytick_4">
     <g id="line2d_22">
      <g>
       <use style="stroke:#000000;stroke-width:0.8;" x="46.0125" xlink:href="#m91d0c8a43e" y="189.536183"/>
      </g>
     </g>
     <g id="text_22">
      <!-- 6000 -->
      <g transform="translate(13.5625 193.335401)scale(0.1 -0.1)">
       <use xlink:href="#DejaVuSans-54"/>
       <use x="63.623047" xlink:href="#DejaVuSans-48"/>
       <use x="127.246094" xlink:href="#DejaVuSans-48"/>
       <use x="190.869141" xlink:href="#DejaVuSans-48"/>
      </g>
     </g>
    </g>
    <g id="ytick_5">
     <g id="line2d_23">
      <g>
       <use style="stroke:#000000;stroke-width:0.8;" x="46.0125" xlink:href="#m91d0c8a43e" y="118.435535"/>
      </g>
     </g>
     <g id="text_23">
      <!-- 8000 -->
      <g transform="translate(13.5625 122.234754)scale(0.1 -0.1)">
       <use xlink:href="#DejaVuSans-56"/>
       <use x="63.623047" xlink:href="#DejaVuSans-48"/>
       <use x="127.246094" xlink:href="#DejaVuSans-48"/>
       <use x="190.869141" xlink:href="#DejaVuSans-48"/>
      </g>
     </g>
    </g>
    <g id="ytick_6">
     <g id="line2d_24">
      <g>
       <use style="stroke:#000000;stroke-width:0.8;" x="46.0125" xlink:href="#m91d0c8a43e" y="47.334888"/>
      </g>
     </g>
     <g id="text_24">
      <!-- 10000 -->
      <g transform="translate(7.2 51.134107)scale(0.1 -0.1)">
       <use xlink:href="#DejaVuSans-49"/>
       <use x="63.623047" xlink:href="#DejaVuSans-48"/>
       <use x="127.246094" xlink:href="#DejaVuSans-48"/>
       <use x="190.869141" xlink:href="#DejaVuSans-48"/>
       <use x="254.492188" xlink:href="#DejaVuSans-48"/>
      </g>
     </g>
    </g>
   </g>
   <g id="patch_21">
    <path d="M 46.0125 402.838125 
L 46.0125 22.318125 
" style="fill:none;stroke:#000000;stroke-linecap:square;stroke-linejoin:miter;stroke-width:0.8;"/>
   </g>
   <g id="patch_22">
    <path d="M 456.306618 402.838125 
L 456.306618 22.318125 
" style="fill:none;stroke:#000000;stroke-linecap:square;stroke-linejoin:miter;stroke-width:0.8;"/>
   </g>
   <g id="patch_23">
    <path d="M 46.0125 402.838125 
L 456.306618 402.838125 
" style="fill:none;stroke:#000000;stroke-linecap:square;stroke-linejoin:miter;stroke-width:0.8;"/>
   </g>
   <g id="patch_24">
    <path d="M 46.0125 22.318125 
L 456.306618 22.318125 
" style="fill:none;stroke:#000000;stroke-linecap:square;stroke-linejoin:miter;stroke-width:0.8;"/>
   </g>
   <g id="text_25">
    <!-- Distribution of Most Dominant Color-Topics in Electronic Music -->
    <defs>
     <path d="M 19.671875 64.796875 
L 19.671875 8.109375 
L 31.59375 8.109375 
Q 46.6875 8.109375 53.6875 14.9375 
Q 60.6875 21.78125 60.6875 36.53125 
Q 60.6875 51.171875 53.6875 57.984375 
Q 46.6875 64.796875 31.59375 64.796875 
z
M 9.8125 72.90625 
L 30.078125 72.90625 
Q 51.265625 72.90625 61.171875 64.09375 
Q 71.09375 55.28125 71.09375 36.53125 
Q 71.09375 17.671875 61.125 8.828125 
Q 51.171875 0 30.078125 0 
L 9.8125 0 
z
" id="DejaVuSans-68"/>
     <path d="M 9.421875 54.6875 
L 18.40625 54.6875 
L 18.40625 0 
L 9.421875 0 
z
M 9.421875 75.984375 
L 18.40625 75.984375 
L 18.40625 64.59375 
L 9.421875 64.59375 
z
" id="DejaVuSans-105"/>
     <path d="M 44.28125 53.078125 
L 44.28125 44.578125 
Q 40.484375 46.53125 36.375 47.5 
Q 32.28125 48.484375 27.875 48.484375 
Q 21.1875 48.484375 17.84375 46.4375 
Q 14.5 44.390625 14.5 40.28125 
Q 14.5 37.15625 16.890625 35.375 
Q 19.28125 33.59375 26.515625 31.984375 
L 29.59375 31.296875 
Q 39.15625 29.25 43.1875 25.515625 
Q 47.21875 21.78125 47.21875 15.09375 
Q 47.21875 7.46875 41.1875 3.015625 
Q 35.15625 -1.421875 24.609375 -1.421875 
Q 20.21875 -1.421875 15.453125 -0.5625 
Q 10.6875 0.296875 5.421875 2 
L 5.421875 11.28125 
Q 10.40625 8.6875 15.234375 7.390625 
Q 20.0625 6.109375 24.8125 6.109375 
Q 31.15625 6.109375 34.5625 8.28125 
Q 37.984375 10.453125 37.984375 14.40625 
Q 37.984375 18.0625 35.515625 20.015625 
Q 33.0625 21.96875 24.703125 23.78125 
L 21.578125 24.515625 
Q 13.234375 26.265625 9.515625 29.90625 
Q 5.8125 33.546875 5.8125 39.890625 
Q 5.8125 47.609375 11.28125 51.796875 
Q 16.75 56 26.8125 56 
Q 31.78125 56 36.171875 55.265625 
Q 40.578125 54.546875 44.28125 53.078125 
z
" id="DejaVuSans-115"/>
     <path d="M 18.3125 70.21875 
L 18.3125 54.6875 
L 36.8125 54.6875 
L 36.8125 47.703125 
L 18.3125 47.703125 
L 18.3125 18.015625 
Q 18.3125 11.328125 20.140625 9.421875 
Q 21.96875 7.515625 27.59375 7.515625 
L 36.8125 7.515625 
L 36.8125 0 
L 27.59375 0 
Q 17.1875 0 13.234375 3.875 
Q 9.28125 7.765625 9.28125 18.015625 
L 9.28125 47.703125 
L 2.6875 47.703125 
L 2.6875 54.6875 
L 9.28125 54.6875 
L 9.28125 70.21875 
z
" id="DejaVuSans-116"/>
     <path d="M 41.109375 46.296875 
Q 39.59375 47.171875 37.8125 47.578125 
Q 36.03125 48 33.890625 48 
Q 26.265625 48 22.1875 43.046875 
Q 18.109375 38.09375 18.109375 28.8125 
L 18.109375 0 
L 9.078125 0 
L 9.078125 54.6875 
L 18.109375 54.6875 
L 18.109375 46.1875 
Q 20.953125 51.171875 25.484375 53.578125 
Q 30.03125 56 36.53125 56 
Q 37.453125 56 38.578125 55.875 
Q 39.703125 55.765625 41.0625 55.515625 
z
" id="DejaVuSans-114"/>
     <path d="M 48.6875 27.296875 
Q 48.6875 37.203125 44.609375 42.84375 
Q 40.53125 48.484375 33.40625 48.484375 
Q 26.265625 48.484375 22.1875 42.84375 
Q 18.109375 37.203125 18.109375 27.296875 
Q 18.109375 17.390625 22.1875 11.75 
Q 26.265625 6.109375 33.40625 6.109375 
Q 40.53125 6.109375 44.609375 11.75 
Q 48.6875 17.390625 48.6875 27.296875 
z
M 18.109375 46.390625 
Q 20.953125 51.265625 25.265625 53.625 
Q 29.59375 56 35.59375 56 
Q 45.5625 56 51.78125 48.09375 
Q 58.015625 40.1875 58.015625 27.296875 
Q 58.015625 14.40625 51.78125 6.484375 
Q 45.5625 -1.421875 35.59375 -1.421875 
Q 29.59375 -1.421875 25.265625 0.953125 
Q 20.953125 3.328125 18.109375 8.203125 
L 18.109375 0 
L 9.078125 0 
L 9.078125 75.984375 
L 18.109375 75.984375 
z
" id="DejaVuSans-98"/>
     <path d="M 8.5 21.578125 
L 8.5 54.6875 
L 17.484375 54.6875 
L 17.484375 21.921875 
Q 17.484375 14.15625 20.5 10.265625 
Q 23.53125 6.390625 29.59375 6.390625 
Q 36.859375 6.390625 41.078125 11.03125 
Q 45.3125 15.671875 45.3125 23.6875 
L 45.3125 54.6875 
L 54.296875 54.6875 
L 54.296875 0 
L 45.3125 0 
L 45.3125 8.40625 
Q 42.046875 3.421875 37.71875 1 
Q 33.40625 -1.421875 27.6875 -1.421875 
Q 18.265625 -1.421875 13.375 4.4375 
Q 8.5 10.296875 8.5 21.578125 
z
M 31.109375 56 
z
" id="DejaVuSans-117"/>
     <path d="M 30.609375 48.390625 
Q 23.390625 48.390625 19.1875 42.75 
Q 14.984375 37.109375 14.984375 27.296875 
Q 14.984375 17.484375 19.15625 11.84375 
Q 23.34375 6.203125 30.609375 6.203125 
Q 37.796875 6.203125 41.984375 11.859375 
Q 46.1875 17.53125 46.1875 27.296875 
Q 46.1875 37.015625 41.984375 42.703125 
Q 37.796875 48.390625 30.609375 48.390625 
z
M 30.609375 56 
Q 42.328125 56 49.015625 48.375 
Q 55.71875 40.765625 55.71875 27.296875 
Q 55.71875 13.875 49.015625 6.21875 
Q 42.328125 -1.421875 30.609375 -1.421875 
Q 18.84375 -1.421875 12.171875 6.21875 
Q 5.515625 13.875 5.515625 27.296875 
Q 5.515625 40.765625 12.171875 48.375 
Q 18.84375 56 30.609375 56 
z
" id="DejaVuSans-111"/>
     <path d="M 54.890625 33.015625 
L 54.890625 0 
L 45.90625 0 
L 45.90625 32.71875 
Q 45.90625 40.484375 42.875 44.328125 
Q 39.84375 48.1875 33.796875 48.1875 
Q 26.515625 48.1875 22.3125 43.546875 
Q 18.109375 38.921875 18.109375 30.90625 
L 18.109375 0 
L 9.078125 0 
L 9.078125 54.6875 
L 18.109375 54.6875 
L 18.109375 46.1875 
Q 21.34375 51.125 25.703125 53.5625 
Q 30.078125 56 35.796875 56 
Q 45.21875 56 50.046875 50.171875 
Q 54.890625 44.34375 54.890625 33.015625 
z
" id="DejaVuSans-110"/>
     <path id="DejaVuSans-32"/>
     <path d="M 37.109375 75.984375 
L 37.109375 68.5 
L 28.515625 68.5 
Q 23.6875 68.5 21.796875 66.546875 
Q 19.921875 64.59375 19.921875 59.515625 
L 19.921875 54.6875 
L 34.71875 54.6875 
L 34.71875 47.703125 
L 19.921875 47.703125 
L 19.921875 0 
L 10.890625 0 
L 10.890625 47.703125 
L 2.296875 47.703125 
L 2.296875 54.6875 
L 10.890625 54.6875 
L 10.890625 58.5 
Q 10.890625 67.625 15.140625 71.796875 
Q 19.390625 75.984375 28.609375 75.984375 
z
" id="DejaVuSans-102"/>
     <path d="M 9.8125 72.90625 
L 24.515625 72.90625 
L 43.109375 23.296875 
L 61.8125 72.90625 
L 76.515625 72.90625 
L 76.515625 0 
L 66.890625 0 
L 66.890625 64.015625 
L 48.09375 14.015625 
L 38.1875 14.015625 
L 19.390625 64.015625 
L 19.390625 0 
L 9.8125 0 
z
" id="DejaVuSans-77"/>
     <path d="M 52 44.1875 
Q 55.375 50.25 60.0625 53.125 
Q 64.75 56 71.09375 56 
Q 79.640625 56 84.28125 50.015625 
Q 88.921875 44.046875 88.921875 33.015625 
L 88.921875 0 
L 79.890625 0 
L 79.890625 32.71875 
Q 79.890625 40.578125 77.09375 44.375 
Q 74.3125 48.1875 68.609375 48.1875 
Q 61.625 48.1875 57.5625 43.546875 
Q 53.515625 38.921875 53.515625 30.90625 
L 53.515625 0 
L 44.484375 0 
L 44.484375 32.71875 
Q 44.484375 40.625 41.703125 44.40625 
Q 38.921875 48.1875 33.109375 48.1875 
Q 26.21875 48.1875 22.15625 43.53125 
Q 18.109375 38.875 18.109375 30.90625 
L 18.109375 0 
L 9.078125 0 
L 9.078125 54.6875 
L 18.109375 54.6875 
L 18.109375 46.1875 
Q 21.1875 51.21875 25.484375 53.609375 
Q 29.78125 56 35.6875 56 
Q 41.65625 56 45.828125 52.96875 
Q 50 49.953125 52 44.1875 
z
" id="DejaVuSans-109"/>
     <path d="M 34.28125 27.484375 
Q 23.390625 27.484375 19.1875 25 
Q 14.984375 22.515625 14.984375 16.5 
Q 14.984375 11.71875 18.140625 8.90625 
Q 21.296875 6.109375 26.703125 6.109375 
Q 34.1875 6.109375 38.703125 11.40625 
Q 43.21875 16.703125 43.21875 25.484375 
L 43.21875 27.484375 
z
M 52.203125 31.203125 
L 52.203125 0 
L 43.21875 0 
L 43.21875 8.296875 
Q 40.140625 3.328125 35.546875 0.953125 
Q 30.953125 -1.421875 24.3125 -1.421875 
Q 15.921875 -1.421875 10.953125 3.296875 
Q 6 8.015625 6 15.921875 
Q 6 25.140625 12.171875 29.828125 
Q 18.359375 34.515625 30.609375 34.515625 
L 43.21875 34.515625 
L 43.21875 35.40625 
Q 43.21875 41.609375 39.140625 45 
Q 35.0625 48.390625 27.6875 48.390625 
Q 23 48.390625 18.546875 47.265625 
Q 14.109375 46.140625 10.015625 43.890625 
L 10.015625 52.203125 
Q 14.9375 54.109375 19.578125 55.046875 
Q 24.21875 56 28.609375 56 
Q 40.484375 56 46.34375 49.84375 
Q 52.203125 43.703125 52.203125 31.203125 
z
" id="DejaVuSans-97"/>
     <path d="M 64.40625 67.28125 
L 64.40625 56.890625 
Q 59.421875 61.53125 53.78125 63.8125 
Q 48.140625 66.109375 41.796875 66.109375 
Q 29.296875 66.109375 22.65625 58.46875 
Q 16.015625 50.828125 16.015625 36.375 
Q 16.015625 21.96875 22.65625 14.328125 
Q 29.296875 6.6875 41.796875 6.6875 
Q 48.140625 6.6875 53.78125 8.984375 
Q 59.421875 11.28125 64.40625 15.921875 
L 64.40625 5.609375 
Q 59.234375 2.09375 53.4375 0.328125 
Q 47.65625 -1.421875 41.21875 -1.421875 
Q 24.65625 -1.421875 15.125 8.703125 
Q 5.609375 18.84375 5.609375 36.375 
Q 5.609375 53.953125 15.125 64.078125 
Q 24.65625 74.21875 41.21875 74.21875 
Q 47.75 74.21875 53.53125 72.484375 
Q 59.328125 70.75 64.40625 67.28125 
z
" id="DejaVuSans-67"/>
     <path d="M 9.421875 75.984375 
L 18.40625 75.984375 
L 18.40625 0 
L 9.421875 0 
z
" id="DejaVuSans-108"/>
     <path d="M 4.890625 31.390625 
L 31.203125 31.390625 
L 31.203125 23.390625 
L 4.890625 23.390625 
z
" id="DejaVuSans-45"/>
     <path d="M -0.296875 72.90625 
L 61.375 72.90625 
L 61.375 64.59375 
L 35.5 64.59375 
L 35.5 0 
L 25.59375 0 
L 25.59375 64.59375 
L -0.296875 64.59375 
z
" id="DejaVuSans-84"/>
     <path d="M 18.109375 8.203125 
L 18.109375 -20.796875 
L 9.078125 -20.796875 
L 9.078125 54.6875 
L 18.109375 54.6875 
L 18.109375 46.390625 
Q 20.953125 51.265625 25.265625 53.625 
Q 29.59375 56 35.59375 56 
Q 45.5625 56 51.78125 48.09375 
Q 58.015625 40.1875 58.015625 27.296875 
Q 58.015625 14.40625 51.78125 6.484375 
Q 45.5625 -1.421875 35.59375 -1.421875 
Q 29.59375 -1.421875 25.265625 0.953125 
Q 20.953125 3.328125 18.109375 8.203125 
z
M 48.6875 27.296875 
Q 48.6875 37.203125 44.609375 42.84375 
Q 40.53125 48.484375 33.40625 48.484375 
Q 26.265625 48.484375 22.1875 42.84375 
Q 18.109375 37.203125 18.109375 27.296875 
Q 18.109375 17.390625 22.1875 11.75 
Q 26.265625 6.109375 33.40625 6.109375 
Q 40.53125 6.109375 44.609375 11.75 
Q 48.6875 17.390625 48.6875 27.296875 
z
" id="DejaVuSans-112"/>
     <path d="M 48.78125 52.59375 
L 48.78125 44.1875 
Q 44.96875 46.296875 41.140625 47.34375 
Q 37.3125 48.390625 33.40625 48.390625 
Q 24.65625 48.390625 19.8125 42.84375 
Q 14.984375 37.3125 14.984375 27.296875 
Q 14.984375 17.28125 19.8125 11.734375 
Q 24.65625 6.203125 33.40625 6.203125 
Q 37.3125 6.203125 41.140625 7.25 
Q 44.96875 8.296875 48.78125 10.40625 
L 48.78125 2.09375 
Q 45.015625 0.34375 40.984375 -0.53125 
Q 36.96875 -1.421875 32.421875 -1.421875 
Q 20.0625 -1.421875 12.78125 6.34375 
Q 5.515625 14.109375 5.515625 27.296875 
Q 5.515625 40.671875 12.859375 48.328125 
Q 20.21875 56 33.015625 56 
Q 37.15625 56 41.109375 55.140625 
Q 45.0625 54.296875 48.78125 52.59375 
z
" id="DejaVuSans-99"/>
     <path d="M 9.8125 72.90625 
L 55.90625 72.90625 
L 55.90625 64.59375 
L 19.671875 64.59375 
L 19.671875 43.015625 
L 54.390625 43.015625 
L 54.390625 34.71875 
L 19.671875 34.71875 
L 19.671875 8.296875 
L 56.78125 8.296875 
L 56.78125 0 
L 9.8125 0 
z
" id="DejaVuSans-69"/>
     <path d="M 56.203125 29.59375 
L 56.203125 25.203125 
L 14.890625 25.203125 
Q 15.484375 15.921875 20.484375 11.0625 
Q 25.484375 6.203125 34.421875 6.203125 
Q 39.59375 6.203125 44.453125 7.46875 
Q 49.3125 8.734375 54.109375 11.28125 
L 54.109375 2.78125 
Q 49.265625 0.734375 44.1875 -0.34375 
Q 39.109375 -1.421875 33.890625 -1.421875 
Q 20.796875 -1.421875 13.15625 6.1875 
Q 5.515625 13.8125 5.515625 26.8125 
Q 5.515625 40.234375 12.765625 48.109375 
Q 20.015625 56 32.328125 56 
Q 43.359375 56 49.78125 48.890625 
Q 56.203125 41.796875 56.203125 29.59375 
z
M 47.21875 32.234375 
Q 47.125 39.59375 43.09375 43.984375 
Q 39.0625 48.390625 32.421875 48.390625 
Q 24.90625 48.390625 20.390625 44.140625 
Q 15.875 39.890625 15.1875 32.171875 
z
" id="DejaVuSans-101"/>
    </defs>
    <g transform="translate(66.033309 16.318125)scale(0.12 -0.12)">
     <use xlink:href="#DejaVuSans-68"/>
     <use x="77.001953" xlink:href="#DejaVuSans-105"/>
     <use x="104.785156" xlink:href="#DejaVuSans-115"/>
     <use x="156.884766" xlink:href="#DejaVuSans-116"/>
     <use x="196.09375" xlink:href="#DejaVuSans-114"/>
     <use x="237.207031" xlink:href="#DejaVuSans-105"/>
     <use x="264.990234" xlink:href="#DejaVuSans-98"/>
     <use x="328.466797" xlink:href="#DejaVuSans-117"/>
     <use x="391.845703" xlink:href="#DejaVuSans-116"/>
     <use x="431.054688" xlink:href="#DejaVuSans-105"/>
     <use x="458.837891" xlink:href="#DejaVuSans-111"/>
     <use x="520.019531" xlink:href="#DejaVuSans-110"/>
     <use x="583.398438" xlink:href="#DejaVuSans-32"/>
     <use x="615.185547" xlink:href="#DejaVuSans-111"/>
     <use x="676.367188" xlink:href="#DejaVuSans-102"/>
     <use x="711.572266" xlink:href="#DejaVuSans-32"/>
     <use x="743.359375" xlink:href="#DejaVuSans-77"/>
     <use x="829.638672" xlink:href="#DejaVuSans-111"/>
     <use x="890.820312" xlink:href="#DejaVuSans-115"/>
     <use x="942.919922" xlink:href="#DejaVuSans-116"/>
     <use x="982.128906" xlink:href="#DejaVuSans-32"/>
     <use x="1013.916016" xlink:href="#DejaVuSans-68"/>
     <use x="1090.917969" xlink:href="#DejaVuSans-111"/>
     <use x="1152.099609" xlink:href="#DejaVuSans-109"/>
     <use x="1249.511719" xlink:href="#DejaVuSans-105"/>
     <use x="1277.294922" xlink:href="#DejaVuSans-110"/>
     <use x="1340.673828" xlink:href="#DejaVuSans-97"/>
     <use x="1401.953125" xlink:href="#DejaVuSans-110"/>
     <use x="1465.332031" xlink:href="#DejaVuSans-116"/>
     <use x="1504.541016" xlink:href="#DejaVuSans-32"/>
     <use x="1536.328125" xlink:href="#DejaVuSans-67"/>
     <use x="1606.152344" xlink:href="#DejaVuSans-111"/>
     <use x="1667.333984" xlink:href="#DejaVuSans-108"/>
     <use x="1695.117188" xlink:href="#DejaVuSans-111"/>
     <use x="1756.298828" xlink:href="#DejaVuSans-114"/>
     <use x="1791.037109" xlink:href="#DejaVuSans-45"/>
     <use x="1817.996094" xlink:href="#DejaVuSans-84"/>
     <use x="1862.080078" xlink:href="#DejaVuSans-111"/>
     <use x="1923.261719" xlink:href="#DejaVuSans-112"/>
     <use x="1986.738281" xlink:href="#DejaVuSans-105"/>
     <use x="2014.521484" xlink:href="#DejaVuSans-99"/>
     <use x="2069.501953" xlink:href="#DejaVuSans-115"/>
     <use x="2121.601562" xlink:href="#DejaVuSans-32"/>
     <use x="2153.388672" xlink:href="#DejaVuSans-105"/>
     <use x="2181.171875" xlink:href="#DejaVuSans-110"/>
     <use x="2244.550781" xlink:href="#DejaVuSans-32"/>
     <use x="2276.337891" xlink:href="#DejaVuSans-69"/>
     <use x="2339.521484" xlink:href="#DejaVuSans-108"/>
     <use x="2367.304688" xlink:href="#DejaVuSans-101"/>
     <use x="2428.828125" xlink:href="#DejaVuSans-99"/>
     <use x="2483.808594" xlink:href="#DejaVuSans-116"/>
     <use x="2523.017578" xlink:href="#DejaVuSans-114"/>
     <use x="2561.880859" xlink:href="#DejaVuSans-111"/>
     <use x="2623.0625" xlink:href="#DejaVuSans-110"/>
     <use x="2686.441406" xlink:href="#DejaVuSans-105"/>
     <use x="2714.224609" xlink:href="#DejaVuSans-99"/>
     <use x="2769.205078" xlink:href="#DejaVuSans-32"/>
     <use x="2800.992188" xlink:href="#DejaVuSans-77"/>
     <use x="2887.271484" xlink:href="#DejaVuSans-117"/>
     <use x="2950.650391" xlink:href="#DejaVuSans-115"/>
     <use x="3002.75" xlink:href="#DejaVuSans-105"/>
     <use x="3030.533203" xlink:href="#DejaVuSans-99"/>
    </g>
   </g>
  </g>
  <g id="axes_2">
   <g id="patch_25">
    <path d="M 538.365441 402.838125 
L 948.659559 402.838125 
L 948.659559 22.318125 
L 538.365441 22.318125 
z
" style="fill:#ffffff;"/>
   </g>
   <g id="patch_26">
    <path clip-path="url(#pcd252b4691)" d="M 557.015174 402.838125 
L 573.778978 402.838125 
L 573.778978 342.664639 
L 557.015174 342.664639 
z
" style="fill:#1f77b4;"/>
   </g>
   <g id="patch_27">
    <path clip-path="url(#pcd252b4691)" d="M 577.96993 402.838125 
L 594.733734 402.838125 
L 594.733734 293.533718 
L 577.96993 293.533718 
z
" style="fill:#1f77b4;"/>
   </g>
   <g id="patch_28">
    <path clip-path="url(#pcd252b4691)" d="M 598.924685 402.838125 
L 615.68849 402.838125 
L 615.68849 319.832012 
L 598.924685 319.832012 
z
" style="fill:#1f77b4;"/>
   </g>
   <g id="patch_29">
    <path clip-path="url(#pcd252b4691)" d="M 619.879441 402.838125 
L 636.643246 402.838125 
L 636.643246 320.715417 
L 619.879441 320.715417 
z
" style="fill:#1f77b4;"/>
   </g>
   <g id="patch_30">
    <path clip-path="url(#pcd252b4691)" d="M 640.834197 402.838125 
L 657.598001 402.838125 
L 657.598001 291.053388 
L 640.834197 291.053388 
z
" style="fill:#1f77b4;"/>
   </g>
   <g id="patch_31">
    <path clip-path="url(#pcd252b4691)" d="M 661.788953 402.838125 
L 678.552757 402.838125 
L 678.552757 233.190347 
L 661.788953 233.190347 
z
" style="fill:#1f77b4;"/>
   </g>
   <g id="patch_32">
    <path clip-path="url(#pcd252b4691)" d="M 682.743708 402.838125 
L 699.507513 402.838125 
L 699.507513 276.918905 
L 682.743708 276.918905 
z
" style="fill:#1f77b4;"/>
   </g>
   <g id="patch_33">
    <path clip-path="url(#pcd252b4691)" d="M 703.698464 402.838125 
L 720.462269 402.838125 
L 720.462269 111.688153 
L 703.698464 111.688153 
z
" style="fill:#1f77b4;"/>
   </g>
   <g id="patch_34">
    <path clip-path="url(#pcd252b4691)" d="M 724.65322 402.838125 
L 741.417024 402.838125 
L 741.417024 273.419261 
L 724.65322 273.419261 
z
" style="fill:#1f77b4;"/>
   </g>
   <g id="patch_35">
    <path clip-path="url(#pcd252b4691)" d="M 745.607976 402.838125 
L 762.37178 402.838125 
L 762.37178 40.438125 
L 745.607976 40.438125 
z
" style="fill:#1f77b4;"/>
   </g>
   <g id="patch_36">
    <path clip-path="url(#pcd252b4691)" d="M 766.562731 402.838125 
L 783.326536 402.838125 
L 783.326536 330.059126 
L 766.562731 330.059126 
z
" style="fill:#1f77b4;"/>
   </g>
   <g id="patch_37">
    <path clip-path="url(#pcd252b4691)" d="M 787.517487 402.838125 
L 804.281292 402.838125 
L 804.281292 285.413186 
L 787.517487 285.413186 
z
" style="fill:#1f77b4;"/>
   </g>
   <g id="patch_38">
    <path clip-path="url(#pcd252b4691)" d="M 808.472243 402.838125 
L 825.236047 402.838125 
L 825.236047 273.928918 
L 808.472243 273.928918 
z
" style="fill:#1f77b4;"/>
   </g>
   <g id="patch_39">
    <path clip-path="url(#pcd252b4691)" d="M 829.426999 402.838125 
L 846.190803 402.838125 
L 846.190803 341.441463 
L 829.426999 341.441463 
z
" style="fill:#1f77b4;"/>
   </g>
   <g id="patch_40">
    <path clip-path="url(#pcd252b4691)" d="M 850.381754 402.838125 
L 867.145559 402.838125 
L 867.145559 371.307354 
L 850.381754 371.307354 
z
" style="fill:#1f77b4;"/>
   </g>
   <g id="patch_41">
    <path clip-path="url(#pcd252b4691)" d="M 871.33651 402.838125 
L 888.100315 402.838125 
L 888.100315 368.75907 
L 871.33651 368.75907 
z
" style="fill:#1f77b4;"/>
   </g>
   <g id="patch_42">
    <path clip-path="url(#pcd252b4691)" d="M 892.291266 402.838125 
L 909.05507 402.838125 
L 909.05507 257.823762 
L 892.291266 257.823762 
z
" style="fill:#1f77b4;"/>
   </g>
   <g id="patch_43">
    <path clip-path="url(#pcd252b4691)" d="M 913.246022 402.838125 
L 930.009826 402.838125 
L 930.009826 325.472215 
L 913.246022 325.472215 
z
" style="fill:#1f77b4;"/>
   </g>
   <g id="matplotlib.axis_3">
    <g id="xtick_19">
     <g id="line2d_25">
      <g>
       <use style="stroke:#000000;stroke-width:0.8;" x="565.397076" xlink:href="#m3b3f9e482b" y="402.838125"/>
      </g>
     </g>
     <g id="text_26">
      <!-- 0 -->
      <g transform="translate(562.215826 417.436562)scale(0.1 -0.1)">
       <use xlink:href="#DejaVuSans-48"/>
      </g>
     </g>
    </g>
    <g id="xtick_20">
     <g id="line2d_26">
      <g>
       <use style="stroke:#000000;stroke-width:0.8;" x="586.351832" xlink:href="#m3b3f9e482b" y="402.838125"/>
      </g>
     </g>
     <g id="text_27">
      <!-- 1 -->
      <g transform="translate(583.170582 417.436562)scale(0.1 -0.1)">
       <use xlink:href="#DejaVuSans-49"/>
      </g>
     </g>
    </g>
    <g id="xtick_21">
     <g id="line2d_27">
      <g>
       <use style="stroke:#000000;stroke-width:0.8;" x="607.306588" xlink:href="#m3b3f9e482b" y="402.838125"/>
      </g>
     </g>
     <g id="text_28">
      <!-- 2 -->
      <g transform="translate(604.125338 417.436562)scale(0.1 -0.1)">
       <use xlink:href="#DejaVuSans-50"/>
      </g>
     </g>
    </g>
    <g id="xtick_22">
     <g id="line2d_28">
      <g>
       <use style="stroke:#000000;stroke-width:0.8;" x="628.261343" xlink:href="#m3b3f9e482b" y="402.838125"/>
      </g>
     </g>
     <g id="text_29">
      <!-- 3 -->
      <g transform="translate(625.080093 417.436562)scale(0.1 -0.1)">
       <use xlink:href="#DejaVuSans-51"/>
      </g>
     </g>
    </g>
    <g id="xtick_23">
     <g id="line2d_29">
      <g>
       <use style="stroke:#000000;stroke-width:0.8;" x="649.216099" xlink:href="#m3b3f9e482b" y="402.838125"/>
      </g>
     </g>
     <g id="text_30">
      <!-- 4 -->
      <g transform="translate(646.034849 417.436562)scale(0.1 -0.1)">
       <use xlink:href="#DejaVuSans-52"/>
      </g>
     </g>
    </g>
    <g id="xtick_24">
     <g id="line2d_30">
      <g>
       <use style="stroke:#000000;stroke-width:0.8;" x="670.170855" xlink:href="#m3b3f9e482b" y="402.838125"/>
      </g>
     </g>
     <g id="text_31">
      <!-- 5 -->
      <g transform="translate(666.989605 417.436562)scale(0.1 -0.1)">
       <use xlink:href="#DejaVuSans-53"/>
      </g>
     </g>
    </g>
    <g id="xtick_25">
     <g id="line2d_31">
      <g>
       <use style="stroke:#000000;stroke-width:0.8;" x="691.125611" xlink:href="#m3b3f9e482b" y="402.838125"/>
      </g>
     </g>
     <g id="text_32">
      <!-- 6 -->
      <g transform="translate(687.944361 417.436562)scale(0.1 -0.1)">
       <use xlink:href="#DejaVuSans-54"/>
      </g>
     </g>
    </g>
    <g id="xtick_26">
     <g id="line2d_32">
      <g>
       <use style="stroke:#000000;stroke-width:0.8;" x="712.080366" xlink:href="#m3b3f9e482b" y="402.838125"/>
      </g>
     </g>
     <g id="text_33">
      <!-- 7 -->
      <g transform="translate(708.899116 417.436562)scale(0.1 -0.1)">
       <use xlink:href="#DejaVuSans-55"/>
      </g>
     </g>
    </g>
    <g id="xtick_27">
     <g id="line2d_33">
      <g>
       <use style="stroke:#000000;stroke-width:0.8;" x="733.035122" xlink:href="#m3b3f9e482b" y="402.838125"/>
      </g>
     </g>
     <g id="text_34">
      <!-- 8 -->
      <g transform="translate(729.853872 417.436562)scale(0.1 -0.1)">
       <use xlink:href="#DejaVuSans-56"/>
      </g>
     </g>
    </g>
    <g id="xtick_28">
     <g id="line2d_34">
      <g>
       <use style="stroke:#000000;stroke-width:0.8;" x="753.989878" xlink:href="#m3b3f9e482b" y="402.838125"/>
      </g>
     </g>
     <g id="text_35">
      <!-- 9 -->
      <g transform="translate(750.808628 417.436562)scale(0.1 -0.1)">
       <use xlink:href="#DejaVuSans-57"/>
      </g>
     </g>
    </g>
    <g id="xtick_29">
     <g id="line2d_35">
      <g>
       <use style="stroke:#000000;stroke-width:0.8;" x="774.944634" xlink:href="#m3b3f9e482b" y="402.838125"/>
      </g>
     </g>
     <g id="text_36">
      <!-- 10 -->
      <g transform="translate(768.582134 417.436562)scale(0.1 -0.1)">
       <use xlink:href="#DejaVuSans-49"/>
       <use x="63.623047" xlink:href="#DejaVuSans-48"/>
      </g>
     </g>
    </g>
    <g id="xtick_30">
     <g id="line2d_36">
      <g>
       <use style="stroke:#000000;stroke-width:0.8;" x="795.899389" xlink:href="#m3b3f9e482b" y="402.838125"/>
      </g>
     </g>
     <g id="text_37">
      <!-- 11 -->
      <g transform="translate(789.536889 417.436562)scale(0.1 -0.1)">
       <use xlink:href="#DejaVuSans-49"/>
       <use x="63.623047" xlink:href="#DejaVuSans-49"/>
      </g>
     </g>
    </g>
    <g id="xtick_31">
     <g id="line2d_37">
      <g>
       <use style="stroke:#000000;stroke-width:0.8;" x="816.854145" xlink:href="#m3b3f9e482b" y="402.838125"/>
      </g>
     </g>
     <g id="text_38">
      <!-- 12 -->
      <g transform="translate(810.491645 417.436562)scale(0.1 -0.1)">
       <use xlink:href="#DejaVuSans-49"/>
       <use x="63.623047" xlink:href="#DejaVuSans-50"/>
      </g>
     </g>
    </g>
    <g id="xtick_32">
     <g id="line2d_38">
      <g>
       <use style="stroke:#000000;stroke-width:0.8;" x="837.808901" xlink:href="#m3b3f9e482b" y="402.838125"/>
      </g>
     </g>
     <g id="text_39">
      <!-- 13 -->
      <g transform="translate(831.446401 417.436562)scale(0.1 -0.1)">
       <use xlink:href="#DejaVuSans-49"/>
       <use x="63.623047" xlink:href="#DejaVuSans-51"/>
      </g>
     </g>
    </g>
    <g id="xtick_33">
     <g id="line2d_39">
      <g>
       <use style="stroke:#000000;stroke-width:0.8;" x="858.763657" xlink:href="#m3b3f9e482b" y="402.838125"/>
      </g>
     </g>
     <g id="text_40">
      <!-- 14 -->
      <g transform="translate(852.401157 417.436562)scale(0.1 -0.1)">
       <use xlink:href="#DejaVuSans-49"/>
       <use x="63.623047" xlink:href="#DejaVuSans-52"/>
      </g>
     </g>
    </g>
    <g id="xtick_34">
     <g id="line2d_40">
      <g>
       <use style="stroke:#000000;stroke-width:0.8;" x="879.718412" xlink:href="#m3b3f9e482b" y="402.838125"/>
      </g>
     </g>
     <g id="text_41">
      <!-- 15 -->
      <g transform="translate(873.355912 417.436562)scale(0.1 -0.1)">
       <use xlink:href="#DejaVuSans-49"/>
       <use x="63.623047" xlink:href="#DejaVuSans-53"/>
      </g>
     </g>
    </g>
    <g id="xtick_35">
     <g id="line2d_41">
      <g>
       <use style="stroke:#000000;stroke-width:0.8;" x="900.673168" xlink:href="#m3b3f9e482b" y="402.838125"/>
      </g>
     </g>
     <g id="text_42">
      <!-- 16 -->
      <g transform="translate(894.310668 417.436562)scale(0.1 -0.1)">
       <use xlink:href="#DejaVuSans-49"/>
       <use x="63.623047" xlink:href="#DejaVuSans-54"/>
      </g>
     </g>
    </g>
    <g id="xtick_36">
     <g id="line2d_42">
      <g>
       <use style="stroke:#000000;stroke-width:0.8;" x="921.627924" xlink:href="#m3b3f9e482b" y="402.838125"/>
      </g>
     </g>
     <g id="text_43">
      <!-- 17 -->
      <g transform="translate(915.265424 417.436562)scale(0.1 -0.1)">
       <use xlink:href="#DejaVuSans-49"/>
       <use x="63.623047" xlink:href="#DejaVuSans-55"/>
      </g>
     </g>
    </g>
   </g>
   <g id="matplotlib.axis_4">
    <g id="ytick_7">
     <g id="line2d_43">
      <g>
       <use style="stroke:#000000;stroke-width:0.8;" x="538.365441" xlink:href="#m91d0c8a43e" y="402.838125"/>
      </g>
     </g>
     <g id="text_44">
      <!-- 0 -->
      <g transform="translate(525.002941 406.637344)scale(0.1 -0.1)">
       <use xlink:href="#DejaVuSans-48"/>
      </g>
     </g>
    </g>
    <g id="ytick_8">
     <g id="line2d_44">
      <g>
       <use style="stroke:#000000;stroke-width:0.8;" x="538.365441" xlink:href="#m91d0c8a43e" y="334.883878"/>
      </g>
     </g>
     <g id="text_45">
      <!-- 2000 -->
      <g transform="translate(505.915441 338.683097)scale(0.1 -0.1)">
       <use xlink:href="#DejaVuSans-50"/>
       <use x="63.623047" xlink:href="#DejaVuSans-48"/>
       <use x="127.246094" xlink:href="#DejaVuSans-48"/>
       <use x="190.869141" xlink:href="#DejaVuSans-48"/>
      </g>
     </g>
    </g>
    <g id="ytick_9">
     <g id="line2d_45">
      <g>
       <use style="stroke:#000000;stroke-width:0.8;" x="538.365441" xlink:href="#m91d0c8a43e" y="266.929631"/>
      </g>
     </g>
     <g id="text_46">
      <!-- 4000 -->
      <g transform="translate(505.915441 270.728849)scale(0.1 -0.1)">
       <use xlink:href="#DejaVuSans-52"/>
       <use x="63.623047" xlink:href="#DejaVuSans-48"/>
       <use x="127.246094" xlink:href="#DejaVuSans-48"/>
       <use x="190.869141" xlink:href="#DejaVuSans-48"/>
      </g>
     </g>
    </g>
    <g id="ytick_10">
     <g id="line2d_46">
      <g>
       <use style="stroke:#000000;stroke-width:0.8;" x="538.365441" xlink:href="#m91d0c8a43e" y="198.975384"/>
      </g>
     </g>
     <g id="text_47">
      <!-- 6000 -->
      <g transform="translate(505.915441 202.774602)scale(0.1 -0.1)">
       <use xlink:href="#DejaVuSans-54"/>
       <use x="63.623047" xlink:href="#DejaVuSans-48"/>
       <use x="127.246094" xlink:href="#DejaVuSans-48"/>
       <use x="190.869141" xlink:href="#DejaVuSans-48"/>
      </g>
     </g>
    </g>
    <g id="ytick_11">
     <g id="line2d_47">
      <g>
       <use style="stroke:#000000;stroke-width:0.8;" x="538.365441" xlink:href="#m91d0c8a43e" y="131.021136"/>
      </g>
     </g>
     <g id="text_48">
      <!-- 8000 -->
      <g transform="translate(505.915441 134.820355)scale(0.1 -0.1)">
       <use xlink:href="#DejaVuSans-56"/>
       <use x="63.623047" xlink:href="#DejaVuSans-48"/>
       <use x="127.246094" xlink:href="#DejaVuSans-48"/>
       <use x="190.869141" xlink:href="#DejaVuSans-48"/>
      </g>
     </g>
    </g>
    <g id="ytick_12">
     <g id="line2d_48">
      <g>
       <use style="stroke:#000000;stroke-width:0.8;" x="538.365441" xlink:href="#m91d0c8a43e" y="63.066889"/>
      </g>
     </g>
     <g id="text_49">
      <!-- 10000 -->
      <g transform="translate(499.552941 66.866108)scale(0.1 -0.1)">
       <use xlink:href="#DejaVuSans-49"/>
       <use x="63.623047" xlink:href="#DejaVuSans-48"/>
       <use x="127.246094" xlink:href="#DejaVuSans-48"/>
       <use x="190.869141" xlink:href="#DejaVuSans-48"/>
       <use x="254.492188" xlink:href="#DejaVuSans-48"/>
      </g>
     </g>
    </g>
   </g>
   <g id="patch_44">
    <path d="M 538.365441 402.838125 
L 538.365441 22.318125 
" style="fill:none;stroke:#000000;stroke-linecap:square;stroke-linejoin:miter;stroke-width:0.8;"/>
   </g>
   <g id="patch_45">
    <path d="M 948.659559 402.838125 
L 948.659559 22.318125 
" style="fill:none;stroke:#000000;stroke-linecap:square;stroke-linejoin:miter;stroke-width:0.8;"/>
   </g>
   <g id="patch_46">
    <path d="M 538.365441 402.838125 
L 948.659559 402.838125 
" style="fill:none;stroke:#000000;stroke-linecap:square;stroke-linejoin:miter;stroke-width:0.8;"/>
   </g>
   <g id="patch_47">
    <path d="M 538.365441 22.318125 
L 948.659559 22.318125 
" style="fill:none;stroke:#000000;stroke-linecap:square;stroke-linejoin:miter;stroke-width:0.8;"/>
   </g>
   <g id="text_50">
    <!-- Distribution of Second Most Dominant Color-Topics in Electronic Music -->
    <defs>
     <path d="M 53.515625 70.515625 
L 53.515625 60.890625 
Q 47.90625 63.578125 42.921875 64.890625 
Q 37.9375 66.21875 33.296875 66.21875 
Q 25.25 66.21875 20.875 63.09375 
Q 16.5 59.96875 16.5 54.203125 
Q 16.5 49.359375 19.40625 46.890625 
Q 22.3125 44.4375 30.421875 42.921875 
L 36.375 41.703125 
Q 47.40625 39.59375 52.65625 34.296875 
Q 57.90625 29 57.90625 20.125 
Q 57.90625 9.515625 50.796875 4.046875 
Q 43.703125 -1.421875 29.984375 -1.421875 
Q 24.8125 -1.421875 18.96875 -0.25 
Q 13.140625 0.921875 6.890625 3.21875 
L 6.890625 13.375 
Q 12.890625 10.015625 18.65625 8.296875 
Q 24.421875 6.59375 29.984375 6.59375 
Q 38.421875 6.59375 43.015625 9.90625 
Q 47.609375 13.234375 47.609375 19.390625 
Q 47.609375 24.75 44.3125 27.78125 
Q 41.015625 30.8125 33.5 32.328125 
L 27.484375 33.5 
Q 16.453125 35.6875 11.515625 40.375 
Q 6.59375 45.0625 6.59375 53.421875 
Q 6.59375 63.09375 13.40625 68.65625 
Q 20.21875 74.21875 32.171875 74.21875 
Q 37.3125 74.21875 42.625 73.28125 
Q 47.953125 72.359375 53.515625 70.515625 
z
" id="DejaVuSans-83"/>
     <path d="M 45.40625 46.390625 
L 45.40625 75.984375 
L 54.390625 75.984375 
L 54.390625 0 
L 45.40625 0 
L 45.40625 8.203125 
Q 42.578125 3.328125 38.25 0.953125 
Q 33.9375 -1.421875 27.875 -1.421875 
Q 17.96875 -1.421875 11.734375 6.484375 
Q 5.515625 14.40625 5.515625 27.296875 
Q 5.515625 40.1875 11.734375 48.09375 
Q 17.96875 56 27.875 56 
Q 33.9375 56 38.25 53.625 
Q 42.578125 51.265625 45.40625 46.390625 
z
M 14.796875 27.296875 
Q 14.796875 17.390625 18.875 11.75 
Q 22.953125 6.109375 30.078125 6.109375 
Q 37.203125 6.109375 41.296875 11.75 
Q 45.40625 17.390625 45.40625 27.296875 
Q 45.40625 37.203125 41.296875 42.84375 
Q 37.203125 48.484375 30.078125 48.484375 
Q 22.953125 48.484375 18.875 42.84375 
Q 14.796875 37.203125 14.796875 27.296875 
z
" id="DejaVuSans-100"/>
    </defs>
    <g transform="translate(534.396563 16.318125)scale(0.12 -0.12)">
     <use xlink:href="#DejaVuSans-68"/>
     <use x="77.001953" xlink:href="#DejaVuSans-105"/>
     <use x="104.785156" xlink:href="#DejaVuSans-115"/>
     <use x="156.884766" xlink:href="#DejaVuSans-116"/>
     <use x="196.09375" xlink:href="#DejaVuSans-114"/>
     <use x="237.207031" xlink:href="#DejaVuSans-105"/>
     <use x="264.990234" xlink:href="#DejaVuSans-98"/>
     <use x="328.466797" xlink:href="#DejaVuSans-117"/>
     <use x="391.845703" xlink:href="#DejaVuSans-116"/>
     <use x="431.054688" xlink:href="#DejaVuSans-105"/>
     <use x="458.837891" xlink:href="#DejaVuSans-111"/>
     <use x="520.019531" xlink:href="#DejaVuSans-110"/>
     <use x="583.398438" xlink:href="#DejaVuSans-32"/>
     <use x="615.185547" xlink:href="#DejaVuSans-111"/>
     <use x="676.367188" xlink:href="#DejaVuSans-102"/>
     <use x="711.572266" xlink:href="#DejaVuSans-32"/>
     <use x="743.359375" xlink:href="#DejaVuSans-83"/>
     <use x="806.835938" xlink:href="#DejaVuSans-101"/>
     <use x="868.359375" xlink:href="#DejaVuSans-99"/>
     <use x="923.339844" xlink:href="#DejaVuSans-111"/>
     <use x="984.521484" xlink:href="#DejaVuSans-110"/>
     <use x="1047.900391" xlink:href="#DejaVuSans-100"/>
     <use x="1111.376953" xlink:href="#DejaVuSans-32"/>
     <use x="1143.164062" xlink:href="#DejaVuSans-77"/>
     <use x="1229.443359" xlink:href="#DejaVuSans-111"/>
     <use x="1290.625" xlink:href="#DejaVuSans-115"/>
     <use x="1342.724609" xlink:href="#DejaVuSans-116"/>
     <use x="1381.933594" xlink:href="#DejaVuSans-32"/>
     <use x="1413.720703" xlink:href="#DejaVuSans-68"/>
     <use x="1490.722656" xlink:href="#DejaVuSans-111"/>
     <use x="1551.904297" xlink:href="#DejaVuSans-109"/>
     <use x="1649.316406" xlink:href="#DejaVuSans-105"/>
     <use x="1677.099609" xlink:href="#DejaVuSans-110"/>
     <use x="1740.478516" xlink:href="#DejaVuSans-97"/>
     <use x="1801.757812" xlink:href="#DejaVuSans-110"/>
     <use x="1865.136719" xlink:href="#DejaVuSans-116"/>
     <use x="1904.345703" xlink:href="#DejaVuSans-32"/>
     <use x="1936.132812" xlink:href="#DejaVuSans-67"/>
     <use x="2005.957031" xlink:href="#DejaVuSans-111"/>
     <use x="2067.138672" xlink:href="#DejaVuSans-108"/>
     <use x="2094.921875" xlink:href="#DejaVuSans-111"/>
     <use x="2156.103516" xlink:href="#DejaVuSans-114"/>
     <use x="2190.841797" xlink:href="#DejaVuSans-45"/>
     <use x="2217.800781" xlink:href="#DejaVuSans-84"/>
     <use x="2261.884766" xlink:href="#DejaVuSans-111"/>
     <use x="2323.066406" xlink:href="#DejaVuSans-112"/>
     <use x="2386.542969" xlink:href="#DejaVuSans-105"/>
     <use x="2414.326172" xlink:href="#DejaVuSans-99"/>
     <use x="2469.306641" xlink:href="#DejaVuSans-115"/>
     <use x="2521.40625" xlink:href="#DejaVuSans-32"/>
     <use x="2553.193359" xlink:href="#DejaVuSans-105"/>
     <use x="2580.976562" xlink:href="#DejaVuSans-110"/>
     <use x="2644.355469" xlink:href="#DejaVuSans-32"/>
     <use x="2676.142578" xlink:href="#DejaVuSans-69"/>
     <use x="2739.326172" xlink:href="#DejaVuSans-108"/>
     <use x="2767.109375" xlink:href="#DejaVuSans-101"/>
     <use x="2828.632812" xlink:href="#DejaVuSans-99"/>
     <use x="2883.613281" xlink:href="#DejaVuSans-116"/>
     <use x="2922.822266" xlink:href="#DejaVuSans-114"/>
     <use x="2961.685547" xlink:href="#DejaVuSans-111"/>
     <use x="3022.867188" xlink:href="#DejaVuSans-110"/>
     <use x="3086.246094" xlink:href="#DejaVuSans-105"/>
     <use x="3114.029297" xlink:href="#DejaVuSans-99"/>
     <use x="3169.009766" xlink:href="#DejaVuSans-32"/>
     <use x="3200.796875" xlink:href="#DejaVuSans-77"/>
     <use x="3287.076172" xlink:href="#DejaVuSans-117"/>
     <use x="3350.455078" xlink:href="#DejaVuSans-115"/>
     <use x="3402.554688" xlink:href="#DejaVuSans-105"/>
     <use x="3430.337891" xlink:href="#DejaVuSans-99"/>
    </g>
   </g>
  </g>
  <g id="axes_3">
   <g id="patch_48">
    <path d="M 1030.718382 402.838125 
L 1441.0125 402.838125 
L 1441.0125 22.318125 
L 1030.718382 22.318125 
z
" style="fill:#ffffff;"/>
   </g>
   <g id="patch_49">
    <path clip-path="url(#p954bceb898)" d="M 1049.368115 402.838125 
L 1066.13192 402.838125 
L 1066.13192 337.216406 
L 1049.368115 337.216406 
z
" style="fill:#1f77b4;"/>
   </g>
   <g id="patch_50">
    <path clip-path="url(#p954bceb898)" d="M 1070.322871 402.838125 
L 1087.086675 402.838125 
L 1087.086675 322.92036 
L 1070.322871 322.92036 
z
" style="fill:#1f77b4;"/>
   </g>
   <g id="patch_51">
    <path clip-path="url(#p954bceb898)" d="M 1091.277626 402.838125 
L 1108.041431 402.838125 
L 1108.041431 331.70813 
L 1091.277626 331.70813 
z
" style="fill:#1f77b4;"/>
   </g>
   <g id="patch_52">
    <path clip-path="url(#p954bceb898)" d="M 1112.232382 402.838125 
L 1128.996187 402.838125 
L 1128.996187 344.921625 
L 1112.232382 344.921625 
z
" style="fill:#1f77b4;"/>
   </g>
   <g id="patch_53">
    <path clip-path="url(#p954bceb898)" d="M 1133.187138 402.838125 
L 1149.950943 402.838125 
L 1149.950943 306.268172 
L 1133.187138 306.268172 
z
" style="fill:#1f77b4;"/>
   </g>
   <g id="patch_54">
    <path clip-path="url(#p954bceb898)" d="M 1154.141894 402.838125 
L 1170.905698 402.838125 
L 1170.905698 40.438125 
L 1154.141894 40.438125 
z
" style="fill:#1f77b4;"/>
   </g>
   <g id="patch_55">
    <path clip-path="url(#p954bceb898)" d="M 1175.096649 402.838125 
L 1191.860454 402.838125 
L 1191.860454 280.446138 
L 1175.096649 280.446138 
z
" style="fill:#1f77b4;"/>
   </g>
   <g id="patch_56">
    <path clip-path="url(#p954bceb898)" d="M 1196.051405 402.838125 
L 1212.81521 402.838125 
L 1212.81521 142.357155 
L 1196.051405 142.357155 
z
" style="fill:#1f77b4;"/>
   </g>
   <g id="patch_57">
    <path clip-path="url(#p954bceb898)" d="M 1217.006161 402.838125 
L 1233.769966 402.838125 
L 1233.769966 286.845927 
L 1217.006161 286.845927 
z
" style="fill:#1f77b4;"/>
   </g>
   <g id="patch_58">
    <path clip-path="url(#p954bceb898)" d="M 1237.960917 402.838125 
L 1254.724721 402.838125 
L 1254.724721 218.390471 
L 1237.960917 218.390471 
z
" style="fill:#1f77b4;"/>
   </g>
   <g id="patch_59">
    <path clip-path="url(#p954bceb898)" d="M 1258.915673 402.838125 
L 1275.679477 402.838125 
L 1275.679477 284.648984 
L 1258.915673 284.648984 
z
" style="fill:#1f77b4;"/>
   </g>
   <g id="patch_60">
    <path clip-path="url(#p954bceb898)" d="M 1279.870428 402.838125 
L 1296.634233 402.838125 
L 1296.634233 318.462796 
L 1279.870428 318.462796 
z
" style="fill:#1f77b4;"/>
   </g>
   <g id="patch_61">
    <path clip-path="url(#p954bceb898)" d="M 1300.825184 402.838125 
L 1317.588989 402.838125 
L 1317.588989 273.186675 
L 1300.825184 273.186675 
z
" style="fill:#1f77b4;"/>
   </g>
   <g id="patch_62">
    <path clip-path="url(#p954bceb898)" d="M 1321.77994 402.838125 
L 1338.543744 402.838125 
L 1338.543744 339.731747 
L 1321.77994 339.731747 
z
" style="fill:#1f77b4;"/>
   </g>
   <g id="patch_63">
    <path clip-path="url(#p954bceb898)" d="M 1342.734696 402.838125 
L 1359.4985 402.838125 
L 1359.4985 356.065537 
L 1342.734696 356.065537 
z
" style="fill:#1f77b4;"/>
   </g>
   <g id="patch_64">
    <path clip-path="url(#p954bceb898)" d="M 1363.689451 402.838125 
L 1380.453256 402.838125 
L 1380.453256 356.256575 
L 1363.689451 356.256575 
z
" style="fill:#1f77b4;"/>
   </g>
   <g id="patch_65">
    <path clip-path="url(#p954bceb898)" d="M 1384.644207 402.838125 
L 1401.408012 402.838125 
L 1401.408012 309.165589 
L 1384.644207 309.165589 
z
" style="fill:#1f77b4;"/>
   </g>
   <g id="patch_66">
    <path clip-path="url(#p954bceb898)" d="M 1405.598963 402.838125 
L 1422.362767 402.838125 
L 1422.362767 346.609132 
L 1405.598963 346.609132 
z
" style="fill:#1f77b4;"/>
   </g>
   <g id="matplotlib.axis_5">
    <g id="xtick_37">
     <g id="line2d_49">
      <g>
       <use style="stroke:#000000;stroke-width:0.8;" x="1057.750017" xlink:href="#m3b3f9e482b" y="402.838125"/>
      </g>
     </g>
     <g id="text_51">
      <!-- 0 -->
      <g transform="translate(1054.568767 417.436562)scale(0.1 -0.1)">
       <use xlink:href="#DejaVuSans-48"/>
      </g>
     </g>
    </g>
    <g id="xtick_38">
     <g id="line2d_50">
      <g>
       <use style="stroke:#000000;stroke-width:0.8;" x="1078.704773" xlink:href="#m3b3f9e482b" y="402.838125"/>
      </g>
     </g>
     <g id="text_52">
      <!-- 1 -->
      <g transform="translate(1075.523523 417.436562)scale(0.1 -0.1)">
       <use xlink:href="#DejaVuSans-49"/>
      </g>
     </g>
    </g>
    <g id="xtick_39">
     <g id="line2d_51">
      <g>
       <use style="stroke:#000000;stroke-width:0.8;" x="1099.659529" xlink:href="#m3b3f9e482b" y="402.838125"/>
      </g>
     </g>
     <g id="text_53">
      <!-- 2 -->
      <g transform="translate(1096.478279 417.436562)scale(0.1 -0.1)">
       <use xlink:href="#DejaVuSans-50"/>
      </g>
     </g>
    </g>
    <g id="xtick_40">
     <g id="line2d_52">
      <g>
       <use style="stroke:#000000;stroke-width:0.8;" x="1120.614285" xlink:href="#m3b3f9e482b" y="402.838125"/>
      </g>
     </g>
     <g id="text_54">
      <!-- 3 -->
      <g transform="translate(1117.433035 417.436562)scale(0.1 -0.1)">
       <use xlink:href="#DejaVuSans-51"/>
      </g>
     </g>
    </g>
    <g id="xtick_41">
     <g id="line2d_53">
      <g>
       <use style="stroke:#000000;stroke-width:0.8;" x="1141.56904" xlink:href="#m3b3f9e482b" y="402.838125"/>
      </g>
     </g>
     <g id="text_55">
      <!-- 4 -->
      <g transform="translate(1138.38779 417.436562)scale(0.1 -0.1)">
       <use xlink:href="#DejaVuSans-52"/>
      </g>
     </g>
    </g>
    <g id="xtick_42">
     <g id="line2d_54">
      <g>
       <use style="stroke:#000000;stroke-width:0.8;" x="1162.523796" xlink:href="#m3b3f9e482b" y="402.838125"/>
      </g>
     </g>
     <g id="text_56">
      <!-- 5 -->
      <g transform="translate(1159.342546 417.436562)scale(0.1 -0.1)">
       <use xlink:href="#DejaVuSans-53"/>
      </g>
     </g>
    </g>
    <g id="xtick_43">
     <g id="line2d_55">
      <g>
       <use style="stroke:#000000;stroke-width:0.8;" x="1183.478552" xlink:href="#m3b3f9e482b" y="402.838125"/>
      </g>
     </g>
     <g id="text_57">
      <!-- 6 -->
      <g transform="translate(1180.297302 417.436562)scale(0.1 -0.1)">
       <use xlink:href="#DejaVuSans-54"/>
      </g>
     </g>
    </g>
    <g id="xtick_44">
     <g id="line2d_56">
      <g>
       <use style="stroke:#000000;stroke-width:0.8;" x="1204.433308" xlink:href="#m3b3f9e482b" y="402.838125"/>
      </g>
     </g>
     <g id="text_58">
      <!-- 7 -->
      <g transform="translate(1201.252058 417.436562)scale(0.1 -0.1)">
       <use xlink:href="#DejaVuSans-55"/>
      </g>
     </g>
    </g>
    <g id="xtick_45">
     <g id="line2d_57">
      <g>
       <use style="stroke:#000000;stroke-width:0.8;" x="1225.388063" xlink:href="#m3b3f9e482b" y="402.838125"/>
      </g>
     </g>
     <g id="text_59">
      <!-- 8 -->
      <g transform="translate(1222.206813 417.436562)scale(0.1 -0.1)">
       <use xlink:href="#DejaVuSans-56"/>
      </g>
     </g>
    </g>
    <g id="xtick_46">
     <g id="line2d_58">
      <g>
       <use style="stroke:#000000;stroke-width:0.8;" x="1246.342819" xlink:href="#m3b3f9e482b" y="402.838125"/>
      </g>
     </g>
     <g id="text_60">
      <!-- 9 -->
      <g transform="translate(1243.161569 417.436562)scale(0.1 -0.1)">
       <use xlink:href="#DejaVuSans-57"/>
      </g>
     </g>
    </g>
    <g id="xtick_47">
     <g id="line2d_59">
      <g>
       <use style="stroke:#000000;stroke-width:0.8;" x="1267.297575" xlink:href="#m3b3f9e482b" y="402.838125"/>
      </g>
     </g>
     <g id="text_61">
      <!-- 10 -->
      <g transform="translate(1260.935075 417.436562)scale(0.1 -0.1)">
       <use xlink:href="#DejaVuSans-49"/>
       <use x="63.623047" xlink:href="#DejaVuSans-48"/>
      </g>
     </g>
    </g>
    <g id="xtick_48">
     <g id="line2d_60">
      <g>
       <use style="stroke:#000000;stroke-width:0.8;" x="1288.252331" xlink:href="#m3b3f9e482b" y="402.838125"/>
      </g>
     </g>
     <g id="text_62">
      <!-- 11 -->
      <g transform="translate(1281.889831 417.436562)scale(0.1 -0.1)">
       <use xlink:href="#DejaVuSans-49"/>
       <use x="63.623047" xlink:href="#DejaVuSans-49"/>
      </g>
     </g>
    </g>
    <g id="xtick_49">
     <g id="line2d_61">
      <g>
       <use style="stroke:#000000;stroke-width:0.8;" x="1309.207086" xlink:href="#m3b3f9e482b" y="402.838125"/>
      </g>
     </g>
     <g id="text_63">
      <!-- 12 -->
      <g transform="translate(1302.844586 417.436562)scale(0.1 -0.1)">
       <use xlink:href="#DejaVuSans-49"/>
       <use x="63.623047" xlink:href="#DejaVuSans-50"/>
      </g>
     </g>
    </g>
    <g id="xtick_50">
     <g id="line2d_62">
      <g>
       <use style="stroke:#000000;stroke-width:0.8;" x="1330.161842" xlink:href="#m3b3f9e482b" y="402.838125"/>
      </g>
     </g>
     <g id="text_64">
      <!-- 13 -->
      <g transform="translate(1323.799342 417.436562)scale(0.1 -0.1)">
       <use xlink:href="#DejaVuSans-49"/>
       <use x="63.623047" xlink:href="#DejaVuSans-51"/>
      </g>
     </g>
    </g>
    <g id="xtick_51">
     <g id="line2d_63">
      <g>
       <use style="stroke:#000000;stroke-width:0.8;" x="1351.116598" xlink:href="#m3b3f9e482b" y="402.838125"/>
      </g>
     </g>
     <g id="text_65">
      <!-- 14 -->
      <g transform="translate(1344.754098 417.436562)scale(0.1 -0.1)">
       <use xlink:href="#DejaVuSans-49"/>
       <use x="63.623047" xlink:href="#DejaVuSans-52"/>
      </g>
     </g>
    </g>
    <g id="xtick_52">
     <g id="line2d_64">
      <g>
       <use style="stroke:#000000;stroke-width:0.8;" x="1372.071354" xlink:href="#m3b3f9e482b" y="402.838125"/>
      </g>
     </g>
     <g id="text_66">
      <!-- 15 -->
      <g transform="translate(1365.708854 417.436562)scale(0.1 -0.1)">
       <use xlink:href="#DejaVuSans-49"/>
       <use x="63.623047" xlink:href="#DejaVuSans-53"/>
      </g>
     </g>
    </g>
    <g id="xtick_53">
     <g id="line2d_65">
      <g>
       <use style="stroke:#000000;stroke-width:0.8;" x="1393.026109" xlink:href="#m3b3f9e482b" y="402.838125"/>
      </g>
     </g>
     <g id="text_67">
      <!-- 16 -->
      <g transform="translate(1386.663609 417.436562)scale(0.1 -0.1)">
       <use xlink:href="#DejaVuSans-49"/>
       <use x="63.623047" xlink:href="#DejaVuSans-54"/>
      </g>
     </g>
    </g>
    <g id="xtick_54">
     <g id="line2d_66">
      <g>
       <use style="stroke:#000000;stroke-width:0.8;" x="1413.980865" xlink:href="#m3b3f9e482b" y="402.838125"/>
      </g>
     </g>
     <g id="text_68">
      <!-- 17 -->
      <g transform="translate(1407.618365 417.436562)scale(0.1 -0.1)">
       <use xlink:href="#DejaVuSans-49"/>
       <use x="63.623047" xlink:href="#DejaVuSans-55"/>
      </g>
     </g>
    </g>
   </g>
   <g id="matplotlib.axis_6">
    <g id="ytick_13">
     <g id="line2d_67">
      <g>
       <use style="stroke:#000000;stroke-width:0.8;" x="1030.718382" xlink:href="#m91d0c8a43e" y="402.838125"/>
      </g>
     </g>
     <g id="text_69">
      <!-- 0 -->
      <g transform="translate(1017.355882 406.637344)scale(0.1 -0.1)">
       <use xlink:href="#DejaVuSans-48"/>
      </g>
     </g>
    </g>
    <g id="ytick_14">
     <g id="line2d_68">
      <g>
       <use style="stroke:#000000;stroke-width:0.8;" x="1030.718382" xlink:href="#m91d0c8a43e" y="339.158631"/>
      </g>
     </g>
     <g id="text_70">
      <!-- 2000 -->
      <g transform="translate(998.268382 342.95785)scale(0.1 -0.1)">
       <use xlink:href="#DejaVuSans-50"/>
       <use x="63.623047" xlink:href="#DejaVuSans-48"/>
       <use x="127.246094" xlink:href="#DejaVuSans-48"/>
       <use x="190.869141" xlink:href="#DejaVuSans-48"/>
      </g>
     </g>
    </g>
    <g id="ytick_15">
     <g id="line2d_69">
      <g>
       <use style="stroke:#000000;stroke-width:0.8;" x="1030.718382" xlink:href="#m91d0c8a43e" y="275.479137"/>
      </g>
     </g>
     <g id="text_71">
      <!-- 4000 -->
      <g transform="translate(998.268382 279.278356)scale(0.1 -0.1)">
       <use xlink:href="#DejaVuSans-52"/>
       <use x="63.623047" xlink:href="#DejaVuSans-48"/>
       <use x="127.246094" xlink:href="#DejaVuSans-48"/>
       <use x="190.869141" xlink:href="#DejaVuSans-48"/>
      </g>
     </g>
    </g>
    <g id="ytick_16">
     <g id="line2d_70">
      <g>
       <use style="stroke:#000000;stroke-width:0.8;" x="1030.718382" xlink:href="#m91d0c8a43e" y="211.799643"/>
      </g>
     </g>
     <g id="text_72">
      <!-- 6000 -->
      <g transform="translate(998.268382 215.598862)scale(0.1 -0.1)">
       <use xlink:href="#DejaVuSans-54"/>
       <use x="63.623047" xlink:href="#DejaVuSans-48"/>
       <use x="127.246094" xlink:href="#DejaVuSans-48"/>
       <use x="190.869141" xlink:href="#DejaVuSans-48"/>
      </g>
     </g>
    </g>
    <g id="ytick_17">
     <g id="line2d_71">
      <g>
       <use style="stroke:#000000;stroke-width:0.8;" x="1030.718382" xlink:href="#m91d0c8a43e" y="148.120149"/>
      </g>
     </g>
     <g id="text_73">
      <!-- 8000 -->
      <g transform="translate(998.268382 151.919368)scale(0.1 -0.1)">
       <use xlink:href="#DejaVuSans-56"/>
       <use x="63.623047" xlink:href="#DejaVuSans-48"/>
       <use x="127.246094" xlink:href="#DejaVuSans-48"/>
       <use x="190.869141" xlink:href="#DejaVuSans-48"/>
      </g>
     </g>
    </g>
    <g id="ytick_18">
     <g id="line2d_72">
      <g>
       <use style="stroke:#000000;stroke-width:0.8;" x="1030.718382" xlink:href="#m91d0c8a43e" y="84.440655"/>
      </g>
     </g>
     <g id="text_74">
      <!-- 10000 -->
      <g transform="translate(991.905882 88.239874)scale(0.1 -0.1)">
       <use xlink:href="#DejaVuSans-49"/>
       <use x="63.623047" xlink:href="#DejaVuSans-48"/>
       <use x="127.246094" xlink:href="#DejaVuSans-48"/>
       <use x="190.869141" xlink:href="#DejaVuSans-48"/>
       <use x="254.492188" xlink:href="#DejaVuSans-48"/>
      </g>
     </g>
    </g>
   </g>
   <g id="patch_67">
    <path d="M 1030.718382 402.838125 
L 1030.718382 22.318125 
" style="fill:none;stroke:#000000;stroke-linecap:square;stroke-linejoin:miter;stroke-width:0.8;"/>
   </g>
   <g id="patch_68">
    <path d="M 1441.0125 402.838125 
L 1441.0125 22.318125 
" style="fill:none;stroke:#000000;stroke-linecap:square;stroke-linejoin:miter;stroke-width:0.8;"/>
   </g>
   <g id="patch_69">
    <path d="M 1030.718382 402.838125 
L 1441.0125 402.838125 
" style="fill:none;stroke:#000000;stroke-linecap:square;stroke-linejoin:miter;stroke-width:0.8;"/>
   </g>
   <g id="patch_70">
    <path d="M 1030.718382 22.318125 
L 1441.0125 22.318125 
" style="fill:none;stroke:#000000;stroke-linecap:square;stroke-linejoin:miter;stroke-width:0.8;"/>
   </g>
   <g id="text_75">
    <!-- Distribution of Third Most Dominant Color-Topics in Electronic Music -->
    <defs>
     <path d="M 54.890625 33.015625 
L 54.890625 0 
L 45.90625 0 
L 45.90625 32.71875 
Q 45.90625 40.484375 42.875 44.328125 
Q 39.84375 48.1875 33.796875 48.1875 
Q 26.515625 48.1875 22.3125 43.546875 
Q 18.109375 38.921875 18.109375 30.90625 
L 18.109375 0 
L 9.078125 0 
L 9.078125 75.984375 
L 18.109375 75.984375 
L 18.109375 46.1875 
Q 21.34375 51.125 25.703125 53.5625 
Q 30.078125 56 35.796875 56 
Q 45.21875 56 50.046875 50.171875 
Q 54.890625 44.34375 54.890625 33.015625 
z
" id="DejaVuSans-104"/>
    </defs>
    <g transform="translate(1033.527629 16.318125)scale(0.12 -0.12)">
     <use xlink:href="#DejaVuSans-68"/>
     <use x="77.001953" xlink:href="#DejaVuSans-105"/>
     <use x="104.785156" xlink:href="#DejaVuSans-115"/>
     <use x="156.884766" xlink:href="#DejaVuSans-116"/>
     <use x="196.09375" xlink:href="#DejaVuSans-114"/>
     <use x="237.207031" xlink:href="#DejaVuSans-105"/>
     <use x="264.990234" xlink:href="#DejaVuSans-98"/>
     <use x="328.466797" xlink:href="#DejaVuSans-117"/>
     <use x="391.845703" xlink:href="#DejaVuSans-116"/>
     <use x="431.054688" xlink:href="#DejaVuSans-105"/>
     <use x="458.837891" xlink:href="#DejaVuSans-111"/>
     <use x="520.019531" xlink:href="#DejaVuSans-110"/>
     <use x="583.398438" xlink:href="#DejaVuSans-32"/>
     <use x="615.185547" xlink:href="#DejaVuSans-111"/>
     <use x="676.367188" xlink:href="#DejaVuSans-102"/>
     <use x="711.572266" xlink:href="#DejaVuSans-32"/>
     <use x="743.359375" xlink:href="#DejaVuSans-84"/>
     <use x="804.443359" xlink:href="#DejaVuSans-104"/>
     <use x="867.822266" xlink:href="#DejaVuSans-105"/>
     <use x="895.605469" xlink:href="#DejaVuSans-114"/>
     <use x="934.96875" xlink:href="#DejaVuSans-100"/>
     <use x="998.445312" xlink:href="#DejaVuSans-32"/>
     <use x="1030.232422" xlink:href="#DejaVuSans-77"/>
     <use x="1116.511719" xlink:href="#DejaVuSans-111"/>
     <use x="1177.693359" xlink:href="#DejaVuSans-115"/>
     <use x="1229.792969" xlink:href="#DejaVuSans-116"/>
     <use x="1269.001953" xlink:href="#DejaVuSans-32"/>
     <use x="1300.789062" xlink:href="#DejaVuSans-68"/>
     <use x="1377.791016" xlink:href="#DejaVuSans-111"/>
     <use x="1438.972656" xlink:href="#DejaVuSans-109"/>
     <use x="1536.384766" xlink:href="#DejaVuSans-105"/>
     <use x="1564.167969" xlink:href="#DejaVuSans-110"/>
     <use x="1627.546875" xlink:href="#DejaVuSans-97"/>
     <use x="1688.826172" xlink:href="#DejaVuSans-110"/>
     <use x="1752.205078" xlink:href="#DejaVuSans-116"/>
     <use x="1791.414062" xlink:href="#DejaVuSans-32"/>
     <use x="1823.201172" xlink:href="#DejaVuSans-67"/>
     <use x="1893.025391" xlink:href="#DejaVuSans-111"/>
     <use x="1954.207031" xlink:href="#DejaVuSans-108"/>
     <use x="1981.990234" xlink:href="#DejaVuSans-111"/>
     <use x="2043.171875" xlink:href="#DejaVuSans-114"/>
     <use x="2077.910156" xlink:href="#DejaVuSans-45"/>
     <use x="2104.869141" xlink:href="#DejaVuSans-84"/>
     <use x="2148.953125" xlink:href="#DejaVuSans-111"/>
     <use x="2210.134766" xlink:href="#DejaVuSans-112"/>
     <use x="2273.611328" xlink:href="#DejaVuSans-105"/>
     <use x="2301.394531" xlink:href="#DejaVuSans-99"/>
     <use x="2356.375" xlink:href="#DejaVuSans-115"/>
     <use x="2408.474609" xlink:href="#DejaVuSans-32"/>
     <use x="2440.261719" xlink:href="#DejaVuSans-105"/>
     <use x="2468.044922" xlink:href="#DejaVuSans-110"/>
     <use x="2531.423828" xlink:href="#DejaVuSans-32"/>
     <use x="2563.210938" xlink:href="#DejaVuSans-69"/>
     <use x="2626.394531" xlink:href="#DejaVuSans-108"/>
     <use x="2654.177734" xlink:href="#DejaVuSans-101"/>
     <use x="2715.701172" xlink:href="#DejaVuSans-99"/>
     <use x="2770.681641" xlink:href="#DejaVuSans-116"/>
     <use x="2809.890625" xlink:href="#DejaVuSans-114"/>
     <use x="2848.753906" xlink:href="#DejaVuSans-111"/>
     <use x="2909.935547" xlink:href="#DejaVuSans-110"/>
     <use x="2973.314453" xlink:href="#DejaVuSans-105"/>
     <use x="3001.097656" xlink:href="#DejaVuSans-99"/>
     <use x="3056.078125" xlink:href="#DejaVuSans-32"/>
     <use x="3087.865234" xlink:href="#DejaVuSans-77"/>
     <use x="3174.144531" xlink:href="#DejaVuSans-117"/>
     <use x="3237.523438" xlink:href="#DejaVuSans-115"/>
     <use x="3289.623047" xlink:href="#DejaVuSans-105"/>
     <use x="3317.40625" xlink:href="#DejaVuSans-99"/>
    </g>
   </g>
  </g>
 </g>
 <defs>
  <clipPath id="pd17281e735">
   <rect height="380.52" width="410.294118" x="46.0125" y="22.318125"/>
  </clipPath>
  <clipPath id="pcd252b4691">
   <rect height="380.52" width="410.294118" x="538.365441" y="22.318125"/>
  </clipPath>
  <clipPath id="p954bceb898">
   <rect height="380.52" width="410.294118" x="1030.718382" y="22.318125"/>
  </clipPath>
 </defs>
</svg>
