<?xml version="1.0" encoding="utf-8" standalone="no"?>
<!DOCTYPE svg PUBLIC "-//W3C//DTD SVG 1.1//EN"
  "http://www.w3.org/Graphics/SVG/1.1/DTD/svg11.dtd">
<!-- Created with matplotlib (https://matplotlib.org/) -->
<svg height="280.856693pt" version="1.1" viewBox="0 0 202.903937 280.856693" width="202.903937pt" xmlns="http://www.w3.org/2000/svg" xmlns:xlink="http://www.w3.org/1999/xlink">
 <defs>
  <style type="text/css">
*{stroke-linecap:butt;stroke-linejoin:round;}
  </style>
 </defs>
 <g id="figure_1">
  <g id="patch_1">
   <path d="M 0 280.856693 
L 202.903937 280.856693 
L 202.903937 0 
L 0 0 
z
" style="fill:#ffffff;"/>
  </g>
  <g id="axes_1">
   <g id="patch_2">
    <path clip-path="url(#p0f4b90c5d1)" d="M 27.04252 69.562205 
L 25.625197 62.475591 
L 27.04252 62.475591 
L 27.04252 41.215748 
L 27.04252 41.215748 
L 27.04252 62.475591 
L 28.459843 62.475591 
z
" style="stroke:#000000;stroke-linejoin:miter;"/>
   </g>
   <g id="patch_3">
    <path clip-path="url(#p0f4b90c5d1)" d="M 140.428346 69.562205 
L 139.011024 62.475591 
L 140.428346 62.475591 
L 140.428346 41.215748 
L 140.428346 41.215748 
L 140.428346 62.475591 
L 141.845669 62.475591 
z
" style="stroke:#000000;stroke-linejoin:miter;"/>
   </g>
   <g id="patch_4">
    <path clip-path="url(#p0f4b90c5d1)" d="M 73.713447 130.406361 
L 67.700256 126.397566 
L 68.702454 125.395368 
L 37.064506 93.757419 
L 37.064506 93.757419 
L 68.702454 125.395368 
L 69.704653 124.393169 
z
" style="stroke:#000000;stroke-linejoin:miter;"/>
   </g>
   <g id="patch_5">
    <path clip-path="url(#p0f4b90c5d1)" d="M 93.757419 130.406361 
L 97.766213 124.393169 
L 98.768412 125.395368 
L 130.406361 93.757419 
L 130.406361 93.757419 
L 98.768412 125.395368 
L 99.77061 126.397566 
z
" style="stroke:#000000;stroke-linejoin:miter;"/>
   </g>
   <g id="patch_6">
    <path clip-path="url(#p0f4b90c5d1)" d="M 83.735433 182.948031 
L 82.31811 175.861417 
L 83.735433 175.861417 
L 83.735433 154.601575 
L 83.735433 154.601575 
L 83.735433 175.861417 
L 85.152756 175.861417 
z
" style="stroke:#000000;stroke-linejoin:miter;"/>
   </g>
   <g id="patch_7">
    <path clip-path="url(#p0f4b90c5d1)" d="M 83.735433 239.640945 
L 82.31811 232.554331 
L 83.735433 232.554331 
L 83.735433 211.294488 
L 83.735433 211.294488 
L 83.735433 232.554331 
L 85.152756 232.554331 
z
" style="stroke:#000000;stroke-linejoin:miter;"/>
   </g>
   <g id="patch_8">
    <path clip-path="url(#p0f4b90c5d1)" d="M 27.04252 41.215748 
C 30.801304 41.215748 34.406644 39.722367 37.064506 37.064506 
C 39.722367 34.406644 41.215748 30.801304 41.215748 27.04252 
C 41.215748 23.283736 39.722367 19.678396 37.064506 17.020534 
C 34.406644 14.362672 30.801304 12.869291 27.04252 12.869291 
C 23.283736 12.869291 19.678396 14.362672 17.020534 17.020534 
C 14.362672 19.678396 12.869291 23.283736 12.869291 27.04252 
C 12.869291 30.801304 14.362672 34.406644 17.020534 37.064506 
C 19.678396 39.722367 23.283736 41.215748 27.04252 41.215748 
z
" style="fill:#b2b2b2;stroke:#000000;stroke-linejoin:miter;"/>
   </g>
   <g id="patch_9">
    <path clip-path="url(#p0f4b90c5d1)" d="M 27.04252 41.215748 
C 30.801304 41.215748 34.406644 39.722367 37.064506 37.064506 
C 39.722367 34.406644 41.215748 30.801304 41.215748 27.04252 
C 41.215748 23.283736 39.722367 19.678396 37.064506 17.020534 
C 34.406644 14.362672 30.801304 12.869291 27.04252 12.869291 
C 23.283736 12.869291 19.678396 14.362672 17.020534 17.020534 
C 14.362672 19.678396 12.869291 23.283736 12.869291 27.04252 
C 12.869291 30.801304 14.362672 34.406644 17.020534 37.064506 
C 19.678396 39.722367 23.283736 41.215748 27.04252 41.215748 
z
" style="fill:none;stroke:#000000;stroke-linejoin:miter;"/>
   </g>
   <g id="patch_10">
    <path clip-path="url(#p0f4b90c5d1)" d="M 27.04252 97.908661 
C 30.801304 97.908661 34.406644 96.415281 37.064506 93.757419 
C 39.722367 91.099557 41.215748 87.494217 41.215748 83.735433 
C 41.215748 79.976649 39.722367 76.371309 37.064506 73.713447 
C 34.406644 71.055585 30.801304 69.562205 27.04252 69.562205 
C 23.283736 69.562205 19.678396 71.055585 17.020534 73.713447 
C 14.362672 76.371309 12.869291 79.976649 12.869291 83.735433 
C 12.869291 87.494217 14.362672 91.099557 17.020534 93.757419 
C 19.678396 96.415281 23.283736 97.908661 27.04252 97.908661 
z
" style="fill:none;stroke:#000000;stroke-linejoin:miter;"/>
   </g>
   <g id="patch_11">
    <path clip-path="url(#p0f4b90c5d1)" d="M 140.428346 41.215748 
C 153.584091 41.215748 166.202781 39.722367 175.505297 37.064506 
C 184.807813 34.406644 190.034646 30.801304 190.034646 27.04252 
C 190.034646 23.283736 184.807813 19.678396 175.505297 17.020534 
C 166.202781 14.362672 153.584091 12.869291 140.428346 12.869291 
C 127.272602 12.869291 114.653912 14.362672 105.351396 17.020534 
C 96.04888 19.678396 90.822047 23.283736 90.822047 27.04252 
C 90.822047 30.801304 96.04888 34.406644 105.351396 37.064506 
C 114.653912 39.722367 127.272602 41.215748 140.428346 41.215748 
z
" style="fill:#b2b2b2;stroke:#000000;stroke-linejoin:miter;"/>
   </g>
   <g id="patch_12">
    <path clip-path="url(#p0f4b90c5d1)" d="M 140.428346 41.215748 
C 153.584091 41.215748 166.202781 39.722367 175.505297 37.064506 
C 184.807813 34.406644 190.034646 30.801304 190.034646 27.04252 
C 190.034646 23.283736 184.807813 19.678396 175.505297 17.020534 
C 166.202781 14.362672 153.584091 12.869291 140.428346 12.869291 
C 127.272602 12.869291 114.653912 14.362672 105.351396 17.020534 
C 96.04888 19.678396 90.822047 23.283736 90.822047 27.04252 
C 90.822047 30.801304 96.04888 34.406644 105.351396 37.064506 
C 114.653912 39.722367 127.272602 41.215748 140.428346 41.215748 
z
" style="fill:none;stroke:#000000;stroke-linejoin:miter;"/>
   </g>
   <g id="patch_13">
    <path clip-path="url(#p0f4b90c5d1)" d="M 140.428346 97.908661 
C 144.187131 97.908661 147.792471 96.415281 150.450332 93.757419 
C 153.108194 91.099557 154.601575 87.494217 154.601575 83.735433 
C 154.601575 79.976649 153.108194 76.371309 150.450332 73.713447 
C 147.792471 71.055585 144.187131 69.562205 140.428346 69.562205 
C 136.669562 69.562205 133.064222 71.055585 130.406361 73.713447 
C 127.748499 76.371309 126.255118 79.976649 126.255118 83.735433 
C 126.255118 87.494217 127.748499 91.099557 130.406361 93.757419 
C 133.064222 96.415281 136.669562 97.908661 140.428346 97.908661 
z
" style="fill:none;stroke:#000000;stroke-linejoin:miter;"/>
   </g>
   <g id="patch_14">
    <path clip-path="url(#p0f4b90c5d1)" d="M 83.735433 154.601575 
C 87.494217 154.601575 91.099557 153.108194 93.757419 150.450332 
C 96.415281 147.792471 97.908661 144.187131 97.908661 140.428346 
C 97.908661 136.669562 96.415281 133.064222 93.757419 130.406361 
C 91.099557 127.748499 87.494217 126.255118 83.735433 126.255118 
C 79.976649 126.255118 76.371309 127.748499 73.713447 130.406361 
C 71.055585 133.064222 69.562205 136.669562 69.562205 140.428346 
C 69.562205 144.187131 71.055585 147.792471 73.713447 150.450332 
C 76.371309 153.108194 79.976649 154.601575 83.735433 154.601575 
z
" style="fill:none;stroke:#000000;stroke-linejoin:miter;"/>
   </g>
   <g id="patch_15">
    <path clip-path="url(#p0f4b90c5d1)" d="M 83.735433 211.294488 
C 87.494217 211.294488 91.099557 209.801107 93.757419 207.143246 
C 96.415281 204.485384 97.908661 200.880044 97.908661 197.12126 
C 97.908661 193.362476 96.415281 189.757136 93.757419 187.099274 
C 91.099557 184.441412 87.494217 182.948031 83.735433 182.948031 
C 79.976649 182.948031 76.371309 184.441412 73.713447 187.099274 
C 71.055585 189.757136 69.562205 193.362476 69.562205 197.12126 
C 69.562205 200.880044 71.055585 204.485384 73.713447 207.143246 
C 76.371309 209.801107 79.976649 211.294488 83.735433 211.294488 
z
" style="fill:none;stroke:#000000;stroke-linejoin:miter;"/>
   </g>
   <g id="patch_16">
    <path clip-path="url(#p0f4b90c5d1)" d="M 83.735433 266.570079 
C 87.118339 266.570079 90.363145 265.226036 92.75522 262.833961 
C 95.147296 260.441885 96.491339 257.197079 96.491339 253.814173 
C 96.491339 250.431268 95.147296 247.186461 92.75522 244.794386 
C 90.363145 242.40231 87.118339 241.058268 83.735433 241.058268 
C 80.352527 241.058268 77.107721 242.40231 74.715646 244.794386 
C 72.32357 247.186461 70.979528 250.431268 70.979528 253.814173 
C 70.979528 257.197079 72.32357 260.441885 74.715646 262.833961 
C 77.107721 265.226036 80.352527 266.570079 83.735433 266.570079 
z
" style="fill:none;stroke:#000000;stroke-linejoin:miter;"/>
   </g>
   <g id="patch_17">
    <path clip-path="url(#p0f4b90c5d1)" d="M 83.735433 267.987402 
C 87.494217 267.987402 91.099557 266.494021 93.757419 263.836159 
C 96.415281 261.178297 97.908661 257.572957 97.908661 253.814173 
C 97.908661 250.055389 96.415281 246.450049 93.757419 243.792187 
C 91.099557 241.134326 87.494217 239.640945 83.735433 239.640945 
C 79.976649 239.640945 76.371309 241.134326 73.713447 243.792187 
C 71.055585 246.450049 69.562205 250.055389 69.562205 253.814173 
C 69.562205 257.572957 71.055585 261.178297 73.713447 263.836159 
C 76.371309 266.494021 79.976649 267.987402 83.735433 267.987402 
z
" style="fill:none;stroke:#000000;stroke-linejoin:miter;"/>
   </g>
   <g id="matplotlib.axis_1"/>
   <g id="matplotlib.axis_2"/>
   <g id="text_1">
    <!-- $x$ -->
    <defs>
     <path d="M 47.40625 41 
C 44.203125 40.390625 43 37.984375 43 36.09375 
C 43 33.6875 44.90625 32.890625 46.296875 32.890625 
C 49.296875 32.890625 51.40625 35.484375 51.40625 38.1875 
C 51.40625 42.09375 46.59375 44 42.40625 44 
C 36.296875 44 32.90625 38.296875 32 36.390625 
C 29.703125 43.59375 23.5 44 21.703125 44 
C 11.5 44 6.09375 31.140625 6.09375 28.890625 
C 6.09375 28.484375 6.5 27.96875 7.203125 27.96875 
C 8 27.96875 8.203125 28.578125 8.40625 28.984375 
C 11.796875 40.1875 18.5 41.984375 21.40625 41.984375 
C 25.90625 41.984375 26.796875 38.09375 26.796875 35.6875 
C 26.796875 33.484375 26.203125 31.140625 25 26.21875 
L 21.59375 12.15625 
C 20.09375 6.09375 17.203125 1 11.90625 1 
C 11.40625 1 8.90625 1 6.796875 1.96875 
C 10.40625 2.59375 11.203125 5.59375 11.203125 6.796875 
C 11.203125 8.796875 9.703125 10 7.796875 10 
C 5.40625 10 2.796875 7.890625 2.796875 4.6875 
C 2.796875 0.890625 7.5 -1 11.796875 -1 
C 16.59375 -1 20 2.390625 22.09375 6.484375 
C 23.703125 1 28.703125 -1 32.40625 -1 
C 42.59375 -1 48 11.734375 48 14 
C 48 14.515625 47.59375 14.921875 47 14.921875 
C 46.09375 14.921875 46 14.40625 45.703125 13.59375 
C 43 4.6875 37.203125 1 32.703125 1 
C 29.203125 1 27.296875 3.1875 27.296875 7.296875 
C 27.296875 9.484375 27.703125 11.125 29.296875 17.90625 
L 32.796875 31.859375 
C 34.296875 37.890625 37.703125 41.984375 42.296875 41.984375 
C 42.5 41.984375 45.296875 41.984375 47.40625 41 
z
" id="CMMI12-120"/>
    </defs>
    <g transform="translate(23.716476 30.031312)scale(0.12 -0.12)">
     <use transform="scale(0.996264)" xlink:href="#CMMI12-120"/>
    </g>
   </g>
   <g id="text_2">
    <!-- $h$ -->
    <defs>
     <path d="M 28.09375 66.484375 
C 28.203125 66.890625 28.40625 67.484375 28.40625 67.984375 
C 28.40625 69 27.40625 69 27.203125 69 
C 27.09375 69 22.203125 68.59375 21.703125 68.484375 
C 20 68.390625 18.5 68.1875 16.703125 68.09375 
C 14.203125 67.890625 13.5 67.796875 13.5 65.984375 
C 13.5 64.984375 14.296875 64.984375 15.703125 64.984375 
C 20.59375 64.984375 20.703125 64.109375 20.703125 63.125 
C 20.703125 62.53125 20.5 61.734375 20.40625 61.4375 
L 5.90625 3.890625 
C 5.5 2.390625 5.5 2.1875 5.5 1.59375 
C 5.5 -0.609375 7.203125 -1 8.203125 -1 
C 9.90625 -1 11.203125 0.296875 11.703125 1.390625 
L 16.203125 19.453125 
C 16.703125 21.640625 17.296875 23.734375 17.796875 25.9375 
C 18.90625 30.125 18.90625 30.21875 20.796875 33.109375 
C 22.703125 36.015625 27.203125 41.984375 34.90625 41.984375 
C 38.90625 41.984375 40.296875 39 40.296875 35.015625 
C 40.296875 29.421875 36.40625 18.546875 34.203125 12.5625 
C 33.296875 10.171875 32.796875 8.875 32.796875 7.078125 
C 32.796875 2.59375 35.90625 -1 40.703125 -1 
C 50 -1 53.5 13.65625 53.5 14.265625 
C 53.5 14.765625 53.09375 15.15625 52.5 15.15625 
C 51.59375 15.15625 51.5 14.859375 51 13.15625 
C 48.703125 5.1875 45 1 41 1 
C 40 1 38.40625 1.09375 38.40625 4.28125 
C 38.40625 6.875 39.59375 10.078125 40 11.171875 
C 41.796875 15.953125 46.296875 27.734375 46.296875 33.515625 
C 46.296875 39.5 42.796875 44 35.203125 44 
C 29.5 44 24.5 41.296875 20.40625 36.109375 
z
" id="CMMI12-104"/>
    </defs>
    <g transform="translate(23.673242 86.724225)scale(0.12 -0.12)">
     <use transform="scale(0.996264)" xlink:href="#CMMI12-104"/>
    </g>
   </g>
   <g id="text_3">
    <!-- $l_{t-n} \dots l_{t-1}$ -->
    <defs>
     <path d="M 25.40625 66.484375 
C 25.5 66.890625 25.703125 67.484375 25.703125 67.984375 
C 25.703125 69 24.703125 69 24.5 69 
C 24.40625 69 20.796875 68.6875 19 68.484375 
C 17.296875 68.390625 15.796875 68.1875 14 68.09375 
C 11.59375 67.890625 10.90625 67.796875 10.90625 65.984375 
C 10.90625 64.984375 11.90625 64.984375 12.90625 64.984375 
C 18 64.984375 18 64.09375 18 63.109375 
C 18 62.703125 18 62.515625 17.5 60.71875 
L 5.09375 11.421875 
C 4.796875 10.328125 4.59375 9.53125 4.59375 7.953125 
C 4.59375 2.984375 8.296875 -1 13.40625 -1 
C 16.703125 -1 18.90625 1.1875 20.5 4.265625 
C 22.203125 7.546875 23.59375 13.8125 23.59375 14.203125 
C 23.59375 14.703125 23.203125 15.109375 22.59375 15.109375 
C 21.703125 15.109375 21.59375 14.609375 21.203125 13.109375 
C 19.40625 6.265625 17.59375 1 13.59375 1 
C 10.59375 1 10.59375 4.171875 10.59375 5.5625 
C 10.59375 5.96875 10.59375 8.046875 11.296875 10.828125 
z
" id="CMMI12-108"/>
     <path d="M 20.09375 40.09375 
L 29.296875 40.09375 
C 31.203125 40.09375 32.203125 40.09375 32.203125 41.890625 
C 32.203125 43 31.59375 43 29.59375 43 
L 20.796875 43 
L 24.5 57.25 
C 24.90625 58.625 24.90625 58.8125 24.90625 59.5 
C 24.90625 61.09375 23.59375 62 22.296875 62 
C 21.5 62 19.203125 61.6875 18.40625 58.53125 
L 14.5 43 
L 5.09375 43 
C 3.09375 43 2.203125 43 2.203125 41.09375 
C 2.203125 40.09375 2.90625 40.09375 4.796875 40.09375 
L 13.703125 40.09375 
L 7.09375 13.765625 
C 6.296875 10.265625 6 9.265625 6 7.96875 
C 6 3.28125 9.296875 -1 14.90625 -1 
C 25 -1 30.40625 13.5625 30.40625 14.265625 
C 30.40625 14.859375 30 15.15625 29.40625 15.15625 
C 29.203125 15.15625 28.796875 15.15625 28.59375 14.75 
C 28.5 14.65625 28.40625 14.5625 27.703125 12.96875 
C 25.59375 7.96875 21 1 15.203125 1 
C 12.203125 1 12 3.484375 12 5.6875 
C 12 5.78125 12 7.671875 12.296875 8.875 
z
" id="CMMI12-116"/>
     <path d="M 65.90625 23 
C 67.59375 23 69.40625 23 69.40625 25 
C 69.40625 27 67.59375 27 65.90625 27 
L 11.796875 27 
C 10.09375 27 8.296875 27 8.296875 25 
C 8.296875 23 10.09375 23 11.796875 23 
z
" id="CMSY10-0"/>
     <path d="M 20.59375 29.21875 
C 20.796875 29.828125 23.296875 34.8125 27 38 
C 29.59375 40.390625 33 41.984375 36.90625 41.984375 
C 40.90625 41.984375 42.296875 39 42.296875 35.015625 
C 42.296875 29.328125 38.203125 17.953125 36.203125 12.5625 
C 35.296875 10.171875 34.796875 8.875 34.796875 7.078125 
C 34.796875 2.59375 37.90625 -1 42.703125 -1 
C 52 -1 55.5 13.65625 55.5 14.265625 
C 55.5 14.765625 55.09375 15.15625 54.5 15.15625 
C 53.59375 15.15625 53.5 14.859375 53 13.15625 
C 50.703125 4.984375 46.90625 1 43 1 
C 42 1 40.40625 1.09375 40.40625 4.28125 
C 40.40625 6.78125 41.5 9.765625 42.09375 11.171875 
C 44.09375 16.65625 48.296875 27.828125 48.296875 33.515625 
C 48.296875 39.5 44.796875 44 37.203125 44 
C 28.296875 44 23.59375 37.703125 21.796875 35.203125 
C 21.5 40.890625 17.40625 44 13 44 
C 9.796875 44 7.59375 42.09375 5.90625 38.703125 
C 4.09375 35.109375 2.703125 29.125 2.703125 28.71875 
C 2.703125 28.328125 3.09375 27.828125 3.796875 27.828125 
C 4.59375 27.828125 4.703125 27.921875 5.296875 30.21875 
C 6.90625 36.3125 8.703125 41.984375 12.703125 41.984375 
C 15 41.984375 15.796875 40.390625 15.796875 37.40625 
C 15.796875 35.203125 14.796875 31.3125 14.09375 28.234375 
L 11.296875 17.453125 
C 10.90625 15.5625 9.796875 11.0625 9.296875 9.265625 
C 8.59375 6.671875 7.5 1.984375 7.5 1.484375 
C 7.5 0.09375 8.59375 -1 10.09375 -1 
C 11.296875 -1 12.703125 -0.40625 13.5 1.09375 
C 13.703125 1.59375 14.59375 5.078125 15.09375 7.078125 
L 17.296875 16.0625 
z
" id="CMMI12-110"/>
     <path d="M 18.40625 4.796875 
C 18.40625 7.6875 16 9.6875 13.59375 9.6875 
C 10.703125 9.6875 8.703125 7.296875 8.703125 4.890625 
C 8.703125 2 11.09375 0 13.5 0 
C 16.40625 0 18.40625 2.390625 18.40625 4.796875 
z
" id="CMMI12-58"/>
     <path d="M 26.59375 63.796875 
C 26.59375 65.890625 26.5 66 25.09375 66 
C 21.203125 61.359375 15.296875 59.890625 9.703125 59.6875 
C 9.40625 59.6875 8.90625 59.6875 8.796875 59.5 
C 8.703125 59.296875 8.703125 59.09375 8.703125 57 
C 11.796875 57 17 57.59375 21 59.984375 
L 21 7.296875 
C 21 3.796875 20.796875 2.59375 12.203125 2.59375 
L 9.203125 2.59375 
L 9.203125 0 
C 14 0.09375 19 0.1875 23.796875 0.1875 
C 28.59375 0.1875 33.59375 0.09375 38.40625 0 
L 38.40625 2.59375 
L 35.40625 2.59375 
C 26.796875 2.59375 26.59375 3.6875 26.59375 7.296875 
z
" id="CMR17-49"/>
    </defs>
    <g transform="translate(113.499179 30.180776)scale(0.12 -0.12)">
     <use transform="translate(0 14.943915)scale(0.996264)" xlink:href="#CMMI12-108"/>
     <use transform="translate(29.057447 0)scale(0.697382)" xlink:href="#CMMI12-116"/>
     <use transform="translate(53.715756 0)scale(0.697382)" xlink:href="#CMSY10-0"/>
     <use transform="translate(107.95675 0)scale(0.697382)" xlink:href="#CMMI12-110"/>
     <use transform="translate(165.82013 14.943915)scale(0.996264)" xlink:href="#CMMI12-58"/>
     <use transform="translate(209.521712 14.943915)scale(0.996264)" xlink:href="#CMMI12-58"/>
     <use transform="translate(253.223295 14.943915)scale(0.996264)" xlink:href="#CMMI12-58"/>
     <use transform="translate(296.924877 14.943915)scale(0.996264)" xlink:href="#CMMI12-108"/>
     <use transform="translate(325.982324 0)scale(0.697382)" xlink:href="#CMMI12-116"/>
     <use transform="translate(350.640634 0)scale(0.697382)" xlink:href="#CMSY10-0"/>
     <use transform="translate(404.881627 0)scale(0.697382)" xlink:href="#CMR17-49"/>
    </g>
   </g>
   <g id="text_4">
    <!-- $h$ -->
    <g transform="translate(137.059069 86.724225)scale(0.12 -0.12)">
     <use transform="scale(0.996264)" xlink:href="#CMMI12-104"/>
    </g>
   </g>
   <g id="text_5">
    <!-- $c$ -->
    <defs>
     <path d="M 39.09375 38 
C 37.203125 38 36.296875 38 34.90625 36.796875 
C 34.296875 36.296875 33.203125 34.796875 33.203125 33.1875 
C 33.203125 31.1875 34.703125 29.984375 36.59375 29.984375 
C 39 29.984375 41.703125 31.984375 41.703125 35.984375 
C 41.703125 40.484375 37.09375 44 30.203125 44 
C 17.09375 44 4 30.1875 4 15.796875 
C 4 6.96875 9.40625 -1 19.59375 -1 
C 33.203125 -1 41.796875 9.71875 41.796875 11.03125 
C 41.796875 11.640625 41.203125 12.140625 40.796875 12.140625 
C 40.5 12.140625 40.40625 12.046875 39.5 11.125 
C 33.09375 2.515625 23.59375 1 19.796875 1 
C 12.90625 1 10.703125 7.078125 10.703125 12.140625 
C 10.703125 15.6875 12.40625 25.53125 16 32.390625 
C 18.59375 37.09375 24 41.984375 30.296875 41.984375 
C 31.59375 41.984375 37.09375 41.8125 39.09375 38 
z
" id="CMMI12-99"/>
    </defs>
    <g transform="translate(81.216445 143.417138)scale(0.12 -0.12)">
     <use transform="scale(0.996264)" xlink:href="#CMMI12-99"/>
    </g>
   </g>
   <g id="text_6">
    <!-- $h$ -->
    <g transform="translate(80.366156 200.110052)scale(0.12 -0.12)">
     <use transform="scale(0.996264)" xlink:href="#CMMI12-104"/>
    </g>
   </g>
   <g id="text_7">
    <!-- $l_t$ -->
    <g transform="translate(80.462976 256.802965)scale(0.12 -0.12)">
     <use transform="translate(0 14.943915)scale(0.996264)" xlink:href="#CMMI12-108"/>
     <use transform="translate(29.057447 0)scale(0.697382)" xlink:href="#CMMI12-116"/>
    </g>
   </g>
  </g>
 </g>
 <defs>
  <clipPath id="p0f4b90c5d1">
   <rect height="266.456693" width="188.503937" x="7.2" y="7.2"/>
  </clipPath>
 </defs>
</svg>
